<svg xmlns="http://www.w3.org/2000/svg" xmlns:xlink="http://www.w3.org/1999/xlink" version="1.1" x="0px" y="0px" viewBox="0 0 170.212 229.183" style="enable-background:new 0 0 170.212 229.183;" xml:space="preserve"><g><ellipse transform="matrix(0.9739 -0.2268 0.2268 0.9739 -3.1724 17.3877)" cx="74.084" cy="22.5" rx="22.495" ry="22.495"></ellipse><path d="M157.833,97.084c0.234-3.213-1.467-6.115-4.112-7.579v13.992C156.004,102.233,157.628,99.883,157.833,97.084z"></path><path d="M126.036,184.25l0.072,0.001c-5.068,4.686-8.262,11.515-8.262,19.123c0,14.13,11.01,25.587,24.588,25.587   c13.582,0,24.586-11.457,24.586-25.587c0-7.613-3.193-14.442-8.262-19.128c-0.768-0.877-7.039-8.502-7.039-23.41   c0-9.044,0-35.481,0-56.562c0-5.73,0-11.062,0-15.543c0-7.97,0-13.247,0-13.247s-1.072-16.979,4.004-25.609   c10.184-5.66,16.184-17.123,14.064-28.828c-1.742-9.65-8.566-17.063-17.332-20.165c1.496,8.267,3.594,19.881,3.813,21.092   c0.346,1.896-5.313,8.897-12.762,10.357c-7.447,1.456-15.217-3.244-15.504-4.826c-0.184-1.012-2.303-12.752-3.813-21.09   c-7.084,6.205-10.854,15.688-9.109,25.338c1.541,8.529,7.055,15.301,14.363,18.904c4.555,9.854,3.707,24.748,3.707,24.748   s0,3.656,0,9.472c0,4.524,0,10.354,0,16.803c0,21.441,0,49.669,0,59.078C133.151,176.632,126.036,184.25,126.036,184.25z    M133.491,190.114c0.848-0.044,1.922-0.688,2.383-1.433l1.125-1.813c0.461-0.744,1.459-1.02,2.215-0.617l1.844,0.982   c0.758,0.404,1.996,0.404,2.754,0l1.846-0.982c0.758-0.402,1.752-0.127,2.215,0.617l1.125,1.813   c0.459,0.744,1.533,1.389,2.385,1.433l2.07,0.108c0.846,0.043,1.576,0.803,1.623,1.686l0.1,2.156   c0.043,0.883,0.664,1.998,1.375,2.479l1.746,1.171c0.715,0.48,0.977,1.519,0.594,2.305l-0.949,1.922   c-0.387,0.787-0.387,2.078,0,2.864l0.949,1.92c0.383,0.786,0.121,1.823-0.594,2.306l-1.746,1.17   c-0.711,0.48-1.332,1.597-1.375,2.48l-0.1,2.153c-0.047,0.886-0.777,1.645-1.623,1.69l-2.07,0.107   c-0.852,0.045-1.926,0.687-2.385,1.434l-1.125,1.809c-0.465,0.745-1.459,1.023-2.217,0.619l-1.846-0.984   c-0.756-0.4-1.994-0.4-2.752,0l-1.844,0.984c-0.756,0.404-1.754,0.126-2.215-0.619l-1.125-1.809   c-0.461-0.746-1.535-1.389-2.383-1.434l-2.074-0.107c-0.848-0.046-1.576-0.805-1.617-1.69l-0.107-2.153   c-0.043-0.884-0.664-2-1.375-2.48l-1.738-1.17c-0.719-0.482-0.984-1.52-0.596-2.306l0.943-1.92c0.391-0.786,0.391-2.077,0-2.864   l-0.943-1.922c-0.389-0.786-0.123-1.824,0.596-2.305l1.738-1.171c0.711-0.481,1.332-1.597,1.375-2.479l0.107-2.156   c0.041-0.883,0.77-1.643,1.617-1.686L133.491,190.114z"></path><path d="M3.495,189.271H37.28v-8.943h3.495l-3.163-28.486h-6.709l-3.639-12.936c0.723-1.217,1.139-2.637,1.123-4.156   c-0.006-0.462-0.006-0.936-0.006-1.424c0.025-31.955,7.801-48.231,14.566-56.56c1.414-1.734,2.793-3.126,4.091-4.267v36.381v18.939   v89c0,6.828,5.537,12.363,12.365,12.363c6.826,0,12.363-5.535,12.363-12.363v-81.273h4.771v81.273   c0,6.828,5.537,12.363,12.365,12.363c6.826,0,12.363-5.535,12.363-12.363V108.881c0-0.593-0.056-1.171-0.137-1.742V83.248   c6.95,6.764,16.891,13.733,30.02,17.827v-16.97c-8.139-3.306-14.359-7.954-19.081-12.532c-3.929-3.833-6.734-7.606-8.517-10.355   c-0.891-1.375-1.529-2.493-1.924-3.229c-0.197-0.369-0.335-0.642-0.415-0.803c-0.032-0.064-0.054-0.11-0.067-0.14l0,0   c-0.004-0.01-0.007-0.016-0.008-0.018c-0.418-0.917-0.992-1.71-1.669-2.378c-1.415-1.795-3.605-2.951-6.068-2.951H54.767   c-0.644,0-1.265,0.087-1.862,0.235c-0.483,0.013-0.973,0.064-1.463,0.168V52.1c-1.22,0.237-11.323,2.782-20.901,14.563   c-9.599,11.765-18.186,32.188-18.161,66.663c0,0.508,0.002,1.042,0.007,1.594c0.015,1.459,0.427,2.819,1.122,3.99l-3.637,12.932   H3.163L0,180.328h3.495V189.271z M16.479,141.812c1.156,0.649,2.488,1.024,3.906,1.024c0.029,0,0.058-0.001,0.086-0.001   c1.391-0.015,2.693-0.384,3.826-1.02l2.818,10.025H13.659L16.479,141.812z"></path></g></svg>