<svg xmlns="http://www.w3.org/2000/svg" xmlns:xlink="http://www.w3.org/1999/xlink" version="1.1" x="0px" y="0px" viewBox="0 0 199 232.614" style="enable-background:new 0 0 199 232.614;" xml:space="preserve"><g><path d="M164.35,22.781c-4.321-0.931-8.574,1.818-9.505,6.138c-0.02,0.092-0.042,0.176-0.061,0.267h15.755   C169.979,26.089,167.615,23.483,164.35,22.781z"></path><path d="M112.52,27.601c2.816-12.1-4.709-24.191-16.807-27.01c-12.1-2.816-24.193,4.707-27.012,16.807   c-0.942,4.047-0.723,8.09,0.432,11.788c0.213,0.68,0.457,1.347,0.731,2.001c2.698,6.43,8.334,11.52,15.646,13.223   c10.851,2.526,21.694-3.27,25.848-13.223c0.271-0.649,0.513-1.317,0.725-2.001C112.244,28.665,112.394,28.14,112.52,27.601z"></path><path d="M117.051,59.853h41.618H199V31.187h-28.363h-16.318h-40.29c-3.587,9.738-12.794,16.312-23.397,16.312   c-1.905,0-3.818-0.219-5.689-0.654c-8.468-1.973-14.924-8.063-17.756-15.658H0v28.666h57.184c-0.98,0.588-1.99,1.249-3.023,2   c-1.578,1.148-3.201,2.491-4.824,4.079c-9.067,8.82-17.163,24.74-17.091,50.834c0,2.419,0.069,4.931,0.208,7.539   c0.043,0.787,0.091,1.582,0.146,2.388l-8.148,8.422l-6.376,1.988l26.979,16.18l-1.394,3.809l19.904,7.986l24.729,9.922l4.771,1.914   l24.729,9.922l57.123,22.92l7.807-10.436l-64.93-43.529l-24.729-16.579l-0.349-0.233l-4.423-2.965l-24.729-16.579l-15.045-10.086   c0.05-0.684,0.106-1.355,0.167-2.014c1.566-16.665,7.062-25.207,11.858-29.984c1.028-1.01,2.045-1.85,3.02-2.559v37.521v4.997   l24.729,16.578l4.771,3.199l2.821,1.892l21.907,14.687v-41.353c0-0.593-0.057-1.171-0.137-1.742V74.346   c2.787,0.544,6.004,0.938,9.525,0.955c0.053,0,0.108,0.001,0.162,0.001c7.611,0,16.904-2.078,25.012-8.857   c1.632-1.357,3.19-2.891,4.675-4.593h-39.446C117.492,61.153,117.315,60.481,117.051,59.853z M53.379,117.909l6.499,5.508   l-18.722,22.098l-6.5-5.506l4.986-5.885c0.305,0.035,0.614,0.06,0.928,0.06c0.188,0,0.375-0.007,0.565-0.02   c0.301-0.021,0.595-0.062,0.885-0.113c3.738-0.679,6.5-3.922,6.557-7.74c0.003-0.225,0.002-0.45-0.014-0.679   c-0.044-0.644-0.08-1.273-0.115-1.901L53.379,117.909z"></path><path d="M63.564,220.251c0,6.828,5.537,12.363,12.365,12.363c6.826,0,12.363-5.535,12.363-12.363v-43.35l-24.729-9.922V220.251z"></path><path d="M93.064,220.251c0,6.828,5.537,12.363,12.365,12.363c6.826,0,12.363-5.535,12.363-12.363v-31.513l-24.729-9.922V220.251z"></path></g></svg>