<svg xmlns="http://www.w3.org/2000/svg" xmlns:xlink="http://www.w3.org/1999/xlink" version="1.1" x="0px" y="0px" viewBox="0 0 222.275 230.183" style="enable-background:new 0 0 222.275 230.183;" xml:space="preserve"><g><path d="M71.358,194.41l-1.408,0.214l-0.701-1.256c-0.211-0.397-5.103-9.943-4.425-26.415l0.056-1.393l1.328-0.429   c0.107-0.033,9.557-3.132,16.603-9.102v-15.123c-1.617-0.922-3.471-1.508-5.587-1.508c-0.648,0-1.315,0.057-1.987,0.163   l-2.681,0.435l0.384-2.69c0.037-0.26,0.091-0.513,0.156-0.76c0.982-3.705,5.066-5.946,9.555-7.256   c0.054-0.016,0.106-0.032,0.16-0.048v-19.362c0-0.593-0.056-1.171-0.137-1.742V70.925c10.016,3.116,27.496,9.683,40.737,20.236   c3.525-4.344,8.421-7.527,14.022-8.894c-0.326-0.426-0.7-0.826-1.123-1.19c-12.114-10.433-26.509-17.251-37.942-21.646   c-11.437-4.375-19.94-6.256-20.21-6.317c-0.439-0.097-0.875-0.146-1.309-0.169c-0.61-0.155-1.246-0.246-1.904-0.246H36.311   c-0.638,0-1.255,0.086-1.848,0.231c-0.556,0.014-1.117,0.082-1.68,0.217c-0.932,0.232-8.887,2.278-16.843,10.438   C7.954,71.714,0.635,85.972,0.708,108.109c0,7.819,0.871,16.645,2.86,26.637c0.577,2.898,2.655,5.112,5.265,6.006v4.463H5   c-2.762,0-5,2.238-5,5v35.667c0,2.762,2.238,5,5,5h14.667c2.762,0,5-2.238,5-5v-35.667c0-2.762-2.238-5-5-5h-3.834v-5.364   c2.625-1.74,4.082-4.948,3.429-8.229c-1.813-9.1-2.555-16.885-2.553-23.513c0.071-18.817,5.725-28.15,10.708-33.376   c0.391-0.402,0.779-0.771,1.165-1.125v36.272v18.94v89c0,6.828,5.537,12.363,12.365,12.363c6.826,0,12.363-5.535,12.363-12.363   v-81.273h4.771v81.273c0,6.828,5.537,12.363,12.365,12.363c6.826,0,12.363-5.535,12.363-12.363v-18.987   c-5.921-4.09-9.813-4.449-10.959-4.449C71.585,194.383,71.417,194.402,71.358,194.41z M51.828,58.184h3.8h3.8l1.9,7.5l-0.29,0.458   c-1.566,1.305-3.484,1.958-5.412,1.96c-1.926-0.002-3.84-0.653-5.404-1.954l-0.294-0.464L51.828,58.184z M55.628,122.684   l-2.317-2.928l-7.183-9.072l1.519-11.186l3.954-29.136c1.297,0.486,2.661,0.74,4.025,0.739c0.003,0,0.009,0,0.009,0   c1.363,0,2.725-0.254,4.021-0.74l3.965,29.213l1.508,11.109l-7.046,8.9L55.628,122.684z"></path><ellipse transform="matrix(0.9739 -0.2268 0.2268 0.9739 -3.6533 13.2019)" cx="55.627" cy="22.5" rx="22.495" ry="22.495"></ellipse><path d="M219.689,145.859c0.553,2.713-0.138,5.383-1.124,7.91c-0.553,1.395-1.851,3.652-3.562,4.536   c0.877-3.493,0.771-6.87-1.838-8.65c-4.127-2.815-7.62,7.719-3.064,9.768c0.676,0.297,1.325,0.484,1.954,0.588   c-0.919,3.237-2.533,6.363-4.212,9.139c-0.51,0.85-1.152,1.851-1.885,2.872c0.029-1.235,0.029-2.409,0.029-3.507   c0-8.672-16.232-34.05-50.269-38.039c-3.625,1.923-7.754,3.018-12.136,3.018c-3.972,0-7.736-0.899-11.105-2.5   c-9.145,1.421-16.89,4.117-23.259,7.217c-3.257-4.941-9.241-8.344-14.86-8.58c-2.686,0-7.419,0.456-11.549,1.712   c-0.215,0.066-0.429,0.132-0.64,0.201c-3.259,1.076-6.035,2.68-6.964,4.991c-0.136,0.337-0.234,0.688-0.287,1.056   c2.907-0.47,5.541-0.036,7.891,1.064c4.079,1.912,7.293,5.853,9.539,10.697c-3.775,3.342-5.646,5.757-5.646,5.757   c-1.197,1.267-2.518,2.433-3.892,3.499c-7.247,5.619-15.988,8.429-15.988,8.429c-0.663,16.126,4.197,25.404,4.197,25.404   s4.318-0.819,11.791,3.988c1.152,0.741,2.374,1.605,3.672,2.639c9.721,7.738,25.183,15.685,25.183,15.685   s-0.753,8.014-3.473,13.784c3.106,0,22.821,0,25.563,0c3.209,0,4.86-8.925,4.86-8.925h25.181c0,0,1.935,3.936,1.935,8.407   c2.082,0,22.771,0,26.831,0c-2.727-7.192-3.065-18.859-3.065-18.859c13.074-13.074,15.78-25.202,16.347-34.355   c1.905-2.043,3.493-4.391,4.694-6.385c1.11-1.843,2.904-5.13,4.004-8.512c5.377-1.327,8.567-9.658,7.544-14.691   C221.913,144.396,219.518,144.995,219.689,145.859z M90.375,170.344c-2.54,0-4.604-2.058-4.604-4.598   c0-2.54,2.063-4.605,4.604-4.605c2.541,0,4.598,2.065,4.598,4.605C94.973,168.287,92.916,170.344,90.375,170.344z M160.138,140.218   c-2.554,1.23-5.571,1.934-8.401,1.513c-7.045-1.019-13.514-0.948-20.48,0.6c-1.063,0.242-6.007,1.602-6.523-0.311   c-0.497-1.857,4.438-3.292,5.494-3.534c10.658-2.382,20.531-3.059,31.361-1.471C164.424,137.423,160.953,139.832,160.138,140.218z    M212.801,156.109c-0.062,0.78-0.193,1.561-0.358,2.334c-0.256-0.104-0.511-0.235-0.781-0.42c-0.813-0.575-1.056-1.658-1.227-2.562   c-0.186-1.002,0.255-5.241,1.366-4.212C213.021,152.382,212.918,154.639,212.801,156.109z"></path><path d="M143.585,131.494c2.823,0,5.53-0.491,8.046-1.387c1.285-0.458,2.518-1.023,3.691-1.683   c7.308-4.109,12.247-11.932,12.247-20.916c0-13.246-10.738-23.985-23.984-23.985c-1.757,0-3.468,0.194-5.117,0.553   c-5.417,1.179-10.15,4.186-13.521,8.346c-3.339,4.121-5.342,9.369-5.342,15.087c0,9.362,5.362,17.463,13.18,21.414   c1.217,0.615,2.49,1.133,3.815,1.535C138.811,131.13,141.155,131.494,143.585,131.494z M141.95,92.522h3.1v2.623   c1.266,0.063,2.424,0.176,3.464,0.333c1.045,0.168,1.947,0.488,2.692,0.983c0.751,0.488,1.327,1.207,1.741,2.159   c0.425,0.953,0.626,2.255,0.626,3.89h-5.605c0-0.532-0.051-0.958-0.156-1.277c-0.107-0.32-0.282-0.563-0.515-0.721   c-0.238-0.162-0.532-0.263-0.895-0.306c-0.363-0.044-0.809-0.063-1.354-0.063h-3.1c-0.495,0-0.927,0.019-1.315,0.063   c-0.381,0.043-0.707,0.144-0.958,0.306c-0.258,0.157-0.451,0.4-0.595,0.721c-0.138,0.319-0.206,0.745-0.206,1.277   c0,0.433,0.043,0.771,0.125,1.022c0.081,0.262,0.242,0.457,0.463,0.594c0.232,0.145,0.539,0.238,0.934,0.309   c0.394,0.061,0.907,0.105,1.553,0.124l3.1,0.289c1.44,0.105,2.732,0.25,3.884,0.4c1.145,0.162,2.135,0.463,2.942,0.907   c0.814,0.464,1.434,1.121,1.86,2.004c0.425,0.896,0.639,2.129,0.639,3.708c0,1.471-0.17,2.699-0.514,3.683   c-0.338,0.982-0.89,1.766-1.647,2.367c-0.757,0.601-1.721,1.021-2.894,1.265c-1.183,0.244-2.598,0.364-4.271,0.364v2.948h-3.1   v-2.948c-1.473,0-2.781-0.096-3.927-0.284c-1.141-0.186-2.091-0.569-2.862-1.158c-0.77-0.569-1.359-1.389-1.76-2.461   c-0.406-1.063-0.613-2.467-0.613-4.196h5.769c0,0.745,0.062,1.329,0.193,1.735c0.126,0.427,0.325,0.739,0.607,0.934   c0.275,0.213,0.62,0.333,1.058,0.376c0.414,0.044,0.94,0.068,1.535,0.068h3.1c0.583,0,1.096-0.019,1.548-0.037   c0.444-0.02,0.813-0.112,1.12-0.27c0.301-0.156,0.514-0.414,0.67-0.745c0.145-0.326,0.227-0.801,0.227-1.416   c0-0.45-0.045-0.807-0.125-1.088c-0.095-0.284-0.265-0.508-0.521-0.671c-0.251-0.176-0.62-0.308-1.083-0.388   c-0.471-0.088-1.084-0.163-1.836-0.232l-3.1-0.213c-1.941-0.139-3.495-0.338-4.659-0.633c-1.165-0.282-2.055-0.695-2.681-1.227   c-0.613-0.532-1.02-1.216-1.209-2.055c-0.193-0.833-0.294-1.86-0.294-3.075c0-1.535,0.151-2.786,0.439-3.726   c0.281-0.959,0.775-1.704,1.472-2.248c0.689-0.539,1.602-0.915,2.735-1.103c1.134-0.193,2.53-0.289,4.196-0.289V92.522z"></path></g></svg>