<svg xmlns="http://www.w3.org/2000/svg" xmlns:xlink="http://www.w3.org/1999/xlink" version="1.1" x="0px" y="0px" viewBox="0 0 155.663 232.182" style="enable-background:new 0 0 155.663 232.182;" xml:space="preserve"><g><path d="M129.76,103.467c3.563-0.441,6.093-3.688,5.651-7.25c-0.399-3.219-3.089-5.586-6.231-5.689l-0.002,12.993   C129.373,103.499,129.564,103.491,129.76,103.467z"></path><path d="M104.982,85.777c-7.893-4.631-14.044-11.955-18.088-18.188c-2.024-3.105-3.532-5.919-4.514-7.916   c-0.488-1-0.85-1.796-1.079-2.324c-0.118-0.265-0.199-0.463-0.25-0.585c-0.051-0.121-0.054-0.135-0.054-0.135   c-0.482-1.233-1.303-2.234-2.311-2.943l-0.091-0.466c0,0-0.03-0.015-0.049-0.023l-0.082,0.345l-4.34,18.135l-0.661,2.763   l7.434,72.579h-2.802h-20H56.43h-1.666h-20h-2.803l7.434-72.579l-1.908-7.974l-3.165-13.228l-0.01-0.041   c-0.018,0.009-0.048,0.023-0.048,0.023l-0.01,0.053c-1.329,0.685-9.243,4.912-17.259,14.102C8.48,77.094-0.034,92.703,0,114.643   c0,1.595,0.042,3.229,0.137,4.903c0.194,3.46,3.061,6.137,6.484,6.138c0.123,0,0.245-0.004,0.369-0.011   c3.585-0.201,6.328-3.27,6.128-6.852c-0.082-1.429-0.118-2.819-0.118-4.179c0.034-18.563,6.918-30.766,13.801-38.734   c1.29-1.483,2.582-2.809,3.828-3.981l-17.532,90.235h21.667v59.529c0,5.523,4.476,10,10,10c5.521,0,10-4.477,10-10v-59.529h3.333   v59.529c0,5.523,4.476,10,10,10c5.52,0,10-4.477,10-10v-59.529h21.667L84.997,86.161c3.713,3.923,8.141,7.72,13.379,10.813   c6.073,3.594,13.294,6.196,21.457,6.775l0.003-13.065C114.248,90.142,109.369,88.353,104.982,85.777z"></path><ellipse transform="matrix(0.2268 -0.9739 0.9739 0.2268 21.7199 72.3583)" cx="56.431" cy="22.5" rx="22.495" ry="22.495"></ellipse><path d="M43.653,60.333l3.441,11.937l9.335-0.752l9.335,0.752L68.9,61.392l2.2-7.629l0.774-2.687   c-3.653-0.828-8.789-1.58-15.445-1.58c-6.656,0-11.792,0.752-15.445,1.58l0.989,3.432L43.653,60.333z"></path><path d="M132.953,193.634c-0.767-2.792-2.963-5.014-5.79-5.883l0.015-84.042l0.002-13.051l0.014-82.404l-5.343,0.011l-0.014,82.555   l-0.003,13.026l-0.014,83.92c-2.824,0.884-5.009,3.116-5.762,5.909c-13.054,3.347-22.607,14.171-22.574,26.991   c0.038,15.457,62.219,15.303,62.179-0.155C155.631,207.69,146.025,196.915,132.953,193.634z"></path></g></svg>