<svg xmlns="http://www.w3.org/2000/svg" xmlns:xlink="http://www.w3.org/1999/xlink" version="1.1" x="0px" y="0px" viewBox="0 0 197.13 229.183" style="enable-background:new 0 0 197.13 229.183;" xml:space="preserve"><g><ellipse transform="matrix(0.9739 -0.2268 0.2268 0.9739 -3.4965 14.5661)" cx="61.643" cy="22.5" rx="22.495" ry="22.495"></ellipse><path d="M19.166,111.865c-3.805-7.049-5.726-14.269-5.709-21.467c0.002-0.91,0.045-1.818,0.108-2.726L0,93.608l15.766,36.033   l12.215-5.344c-2.699-3.071-5.035-6.175-6.982-9.299C20.348,113.955,19.73,112.911,19.166,111.865z"></path><path d="M64.117,108.486l7.839-3.43l-2.713-6.2L56.189,69.023l-18.266,7.992c-1.272,1.893-2.485,4.129-3.326,6.623   c-0.705,2.088-1.15,4.355-1.141,6.758c0.007,2.284,0.391,4.569,1.141,6.899c0.507,1.574,1.182,3.169,2.035,4.799   c0.051,0.096,0.093,0.19,0.145,0.286c2.221,4.126,5.562,8.355,9.937,12.618c0.258,0.251,0.533,0.502,0.797,0.753l11.814-5.169   L64.117,108.486z"></path><path d="M15.645,86.763c-0.114,1.187-0.188,2.397-0.19,3.642c-0.012,6.431,1.656,13.441,5.473,20.509   c0.733,1.358,1.543,2.72,2.432,4.084c1.828,2.808,4,5.628,6.534,8.462c0.464,0.519,0.941,1.039,1.43,1.559   c1.037,1.103,2.123,2.207,3.274,3.314c0.009,0.009,0.019,0.018,0.027,0.026c1.4,1.345,2.886,2.694,4.46,4.045   c1.509,1.295,3.362,1.93,5.207,1.93c2.253,0,4.492-0.946,6.074-2.79c2.875-3.355,2.491-8.403-0.859-11.281   c-0.842-0.722-1.642-1.437-2.412-2.144c-0.545-0.501-1.072-0.999-1.582-1.492c-0.566-0.548-1.108-1.09-1.633-1.628   c-3.77-3.869-6.478-7.481-8.367-10.776c-0.173-0.301-0.34-0.601-0.499-0.896c-0.151-0.282-0.276-0.553-0.416-0.83   c-2.326-4.609-3.13-8.554-3.14-12.09c-0.018-4.319,1.272-8.293,3.14-11.755c0.043-0.08,0.088-0.158,0.132-0.237   c0.526-0.956,1.095-1.874,1.692-2.746c0.06-0.086,0.119-0.17,0.179-0.256l18.787-8.22l1.834-0.803l0.802,1.834l12.948,29.592   l2.817,6.439l0.802,1.833l-1.833,0.803l-8.66,3.789l-4.772,2.088l-10.217,4.47c0.555,0.503,1.114,1.006,1.701,1.509   c4.181,3.589,4.663,9.915,1.071,14.098c-1.025,1.199-2.31,2.109-3.731,2.703c-1.208,0.505-2.515,0.785-3.858,0.785   c-1.929,0-3.805-0.567-5.411-1.603c-0.381-0.246-0.752-0.51-1.1-0.808c-0.54-0.463-1.054-0.93-1.576-1.396   c-0.544-0.485-1.082-0.971-1.607-1.458v85.754c0,6.828,5.537,12.363,12.365,12.363c6.826,0,12.363-5.535,12.363-12.363v-81.273   h4.772v81.273c0,6.828,5.537,12.363,12.365,12.363c6.826,0,12.363-5.535,12.363-12.363V108.881c0-0.593-0.056-1.171-0.137-1.742   V92.087c5.232,8.346,12.14,17.233,21.146,24.706v-8.522v-1.999h0.843V95.159c-4.318-5.066-7.941-10.469-10.858-15.602   c-3.429-6.003-5.898-11.571-7.485-15.587c-0.797-2.008-1.371-3.628-1.74-4.721c-0.185-0.545-0.318-0.962-0.401-1.227   c-0.041-0.133-0.071-0.229-0.088-0.286c-0.016-0.049-0.014-0.049-0.016-0.049c-0.973-3.338-3.933-5.549-7.216-5.74   c-0.613-0.156-1.252-0.248-1.913-0.248H42.326c-0.643,0-1.263,0.087-1.858,0.234c-1.494,0.035-2.995,0.484-4.319,1.391v-0.002   c-0.403,0.288-5.251,3.608-10.289,9.776c-2.687,3.299-5.482,7.522-7.502,12.568c-1.079,2.697-1.932,5.629-2.426,8.788   C15.813,85.211,15.72,85.981,15.645,86.763z"></path><path d="M112.678,108.272h-0.844v10.144v1.479h0.844v48.377h-0.844v11.623h0.844v48.552h83.608v-48.552h0.845v-11.623h-0.845   v-48.377h0.845v-11.623h-0.845V59.895h0.845V48.272h-85.296v11.623h0.844v37.529V108.272z M140.234,70.951h28.494v7.874h-28.494   V70.951z M168.729,198.825h-28.494v-7.874h28.494V198.825z M168.729,130.951v7.874h-28.494v-7.874H168.729z"></path></g></svg>