<svg xmlns="http://www.w3.org/2000/svg" xmlns:xlink="http://www.w3.org/1999/xlink" version="1.1" x="0px" y="0px" viewBox="0 0 147.78 231.692" style="enable-background:new 0 0 147.78 231.692;" xml:space="preserve"><g><path d="M79.893,65.485c-2.508-2.811-4.469-5.352-5.785-7.16c-0.658-0.904-1.154-1.625-1.476-2.106   c-0.163-0.242-0.28-0.423-0.356-0.535c-0.073-0.114-0.084-0.134-0.084-0.134c-0.475-0.759-1.08-1.385-1.768-1.87l-0.09-0.461   c0,0-7.352-3.724-22.167-3.724c-11.868,0-18.934,2.386-21.28,3.337c-0.548,0.136-1.088,0.338-1.604,0.626h-0.003   c-0.26,0.153-6.085,3.377-12.189,8.93c-3.05,2.788-6.19,6.163-8.697,10.22c-2.488,4.038-4.389,8.879-4.392,14.334   c-0.041,5.882,2.385,12.086,7.291,17.503c1.078,1.201,2.276,2.377,3.589,3.533c1.191,1.05,2.481,2.083,3.879,3.101   c2.711,1.976,5.817,3.895,9.369,5.772c1.771,0.936,3.648,1.862,5.645,2.779c0.877,0.402,1.798,0.593,2.703,0.593   c2.464,0,4.82-1.407,5.914-3.792c1.498-3.265,0.064-7.121-3.2-8.616c-3.351-1.533-6.234-3.062-8.71-4.558   c-3.955-2.391-6.858-4.698-8.879-6.807c-0.218-0.227-0.425-0.451-0.622-0.673c-0.675-0.769-1.235-1.493-1.708-2.185   c-1.759-2.572-2.241-4.664-2.273-6.65c-0.005-2.345,0.839-4.876,2.461-7.513c1.736-2.848,4.359-5.636,6.999-7.975l-4.376,22.523   c0.133,0.16,0.256,0.314,0.4,0.479c1.522,1.712,4.098,4.03,8.364,6.681l2.355-13.616l29.232,5.057l-7.67,44.342l-6.155-1.064   l-13.794-2.387l-9.283-1.605l2.239-12.945c-3.52-1.833-6.656-3.723-9.431-5.684l-9.507,48.928h21.667v59.529   c0,5.524,4.477,10,10,10c5.521,0,10-4.476,10-10v-59.529h3.333v59.529c0,5.524,4.477,10,10,10c5.521,0,10-4.476,10-10v-59.529   h21.667L75.465,79.631c0.412,0.4,0.822,0.8,1.251,1.202c4.896,4.575,10.854,9.219,17.831,12.79   c0.482,0.247,0.973,0.487,1.466,0.724c-1.802-5.629-3.288-12.173-3.995-17.619C87.255,73.162,83.114,69.108,79.893,65.485z"></path><path d="M107.429,187.026c-8.876,1.238-15.882,37.533-13.35,41.373c2.527,3.848,32.043,5.053,40.844-7.685   c8.424-12.19,12.854-56.964,12.857-72.926c-0.007-15.959-4.434-60.735-12.861-72.923c-8.793-12.741-38.311-11.53-40.838-7.686   c-0.798,1.209-0.648,5.639,0.207,11.176c0.818,5.303,2.287,11.617,4.191,17.105c2.422,6.979,5.549,12.617,8.955,13.096   c7.383,1.033,16.504-5.354,17.653-1.629c1.504,4.84,4.952,28.452,4.958,40.863c-0.002,12.409-3.457,36.021-4.955,40.862   C123.939,192.376,114.818,185.99,107.429,187.026z"></path><ellipse transform="matrix(0.2268 -0.9739 0.9739 0.2268 15.3305 64.3103)" cx="48.168" cy="22.5" rx="22.495" ry="22.495"></ellipse></g></svg>