<svg xmlns="http://www.w3.org/2000/svg" xmlns:xlink="http://www.w3.org/1999/xlink" version="1.1" x="0px" y="0px" viewBox="0 0 196.665 244.157" style="enable-background:new 0 0 196.665 244.157;" xml:space="preserve"><g><path d="M69.644,152.359c2.436-5.645,5.627-10.89,9.44-15.613v-11.054V86.441c1.68,0.774,3.681,1.95,5.984,3.765   c3.796,3.016,8.397,7.889,13.336,15.654c2.064,3.247,4.188,7,6.335,11.336c0.289,0.583,0.579,1.178,0.868,1.782   c1.047,2.185,2.099,4.506,3.152,6.979c0.538,1.264,1.373,2.303,2.377,3.103c0.676,0.538,1.429,0.958,2.234,1.253   c0.878,0.322,1.805,0.511,2.753,0.511c1.045,0,2.107-0.206,3.13-0.641c1.229-0.523,2.256-1.321,3.048-2.288   c0.553-0.675,0.987-1.432,1.293-2.239c0.707-1.863,0.728-3.989-0.115-5.967c-0.771-1.809-1.545-3.531-2.322-5.216   c-0.291-0.631-0.582-1.258-0.873-1.871c-2.329-4.9-4.679-9.26-7.033-13.144c-6.181-10.199-12.378-17.112-18.218-21.771   c-8.686-6.968-16.592-8.643-21.1-8.728c-0.807-0.286-1.672-0.45-2.577-0.45H32.722c-1.002,0-1.956,0.197-2.835,0.544   c-0.192,0.048-0.385,0.095-0.577,0.157h-0.002c-0.858,0.29-8.094,2.778-15.329,10.72C6.717,87.833-0.062,101.291,0,121.412   c0.002,9.236,1.367,19.885,4.593,32.198c0.941,3.593,4.185,5.974,7.735,5.974c0.671,0,1.352-0.084,2.031-0.263   c4.274-1.118,6.831-5.492,5.712-9.766C17.138,138.355,16,129.063,16,121.412c0.06-15.705,4.595-24.455,8.995-29.76v34.04v18.939v86   c0,6.829,5.535,12.363,12.363,12.363c6.828,0,12.363-5.534,12.363-12.363v-78.272h4.637v78.272c0,6.829,5.535,12.363,12.363,12.363   c6.828,0,12.363-5.534,12.363-12.363v-9.556c-9.319-11.543-14.915-26.21-14.915-42.165C64.17,169.485,66.127,160.51,69.644,152.359   z M52.04,79.263c2.209,0,4,1.791,4,4s-1.791,4-4,4s-4-1.791-4-4S49.831,79.263,52.04,79.263z M52.04,98.374c2.209,0,4,1.791,4,4   s-1.791,4-4,4s-4-1.791-4-4S49.831,98.374,52.04,98.374z M52.04,125.485c-0.89,0-1.704-0.301-2.369-0.792   c-0.985-0.729-1.631-1.89-1.631-3.208c0-0.523,0.107-1.021,0.29-1.479c0.589-1.476,2.024-2.521,3.71-2.521   c1.686,0,3.121,1.046,3.71,2.521c0.183,0.458,0.29,0.955,0.29,1.479c0,1.318-0.646,2.479-1.631,3.208   C53.744,125.185,52.93,125.485,52.04,125.485z"></path><path d="M125.32,118.907c0.884,2.071,1.033,4.327,0.462,6.471c1.854-0.193,3.733-0.296,5.637-0.296   c29.683,0,53.828,24.147,53.828,53.828c0,29.683-24.146,53.829-53.828,53.829c-25.354,0-46.657-17.623-52.335-41.259   c-0.97-4.036-1.497-8.241-1.497-12.57c0-4.329,0.527-8.534,1.497-12.569c3.897-16.224,15.156-29.602,30.037-36.404   c-0.913-0.899-1.677-1.966-2.199-3.194c-1.053-2.472-2.101-4.769-3.142-6.937c-9.806,4.593-18.287,11.543-24.696,20.136   c-2.854,3.827-5.284,7.985-7.254,12.395c-3.627,8.119-5.66,17.107-5.66,26.575c0,14.609,4.803,28.096,12.914,38.97   c11.896,15.948,30.908,26.276,52.334,26.276c36.033,0,65.246-29.211,65.246-65.246c0-36.035-29.213-65.246-65.246-65.246   c-2.774,0-5.501,0.193-8.184,0.529C123.938,115.731,124.635,117.298,125.32,118.907z"></path><path d="M156.87,211.867h5.656c1.564,0,2.832-1.265,2.832-2.825v-8.485h2.828v-5.659H94.649v5.659h2.828v8.485   c0,1.561,1.264,2.825,2.83,2.825h5.654c1.563,0,2.83-1.265,2.83-2.825v-8.485h45.252v8.485   C154.044,210.602,155.308,211.867,156.87,211.867z"></path><path d="M97.62,174.213c-1.904,0.532-2.971,0.886-2.971,0.886v16.972h73.537v-16.972c0,0-1.064-0.354-2.971-0.886l-9.096-24.262   c0,0-9.173-1.526-16.702-2.451v-1.667c0-2.485-2.015-4.5-4.5-4.5h-7c-2.485,0-4.5,2.015-4.5,4.5v1.668   c-7.53,0.925-16.7,2.45-16.7,2.45L97.62,174.213z M105.962,186.415h-5.654v-8.486h5.654V186.415z M162.526,186.415h-5.656v-8.486   h5.656V186.415z M131.421,152.471c4.365,0,16.227,1.836,20.551,2.525l6.473,17.267c0,0-17.148-2.818-27.025-2.818   c-9.881,0-27.037,2.818-27.037,2.818l6.486-17.259C115.192,154.307,127.052,152.471,131.421,152.471z"></path><path d="M51.675,0C41.009,0,32.341,7,32.341,7v18.764c2.326-2.988,5.307-5.441,8.816-7.141c6.012-2.906,12.795-3.297,19.098-1.102   c0.293,0.102,0.58,0.207,0.867,0.318c3.958,1.541,7.3,3.965,9.887,6.962V7C71.009,7,62.341,0,51.675,0z"></path><path d="M59.433,19.881c-10.517-3.661-21.903,0.946-27.092,10.39c-0.6,1.092-1.122,2.245-1.545,3.461   c-4.084,11.732,2.117,24.555,13.85,28.639C56.38,66.455,69.2,60.254,73.286,48.519c2.351-6.757,1.286-13.871-2.277-19.474   C68.385,24.92,64.409,21.613,59.433,19.881z"></path></g></svg>