<svg xmlns="http://www.w3.org/2000/svg" xmlns:xlink="http://www.w3.org/1999/xlink" version="1.1" x="0px" y="0px" viewBox="0 0 157.496 229.184" style="enable-background:new 0 0 157.496 229.184;" xml:space="preserve"><g><ellipse transform="matrix(0.2268 -0.9739 0.9739 0.2268 42.859 98.9857)" cx="83.771" cy="22.5" rx="22.495" ry="22.495"></ellipse><path d="M0.022,97.085c0.269,3.666,2.967,6.572,6.404,7.261V88.665C2.526,89.444-0.276,93.017,0.022,97.085z"></path><path d="M23.223,30.092L18.297,2.518H8.428L3.497,30.092l4.931,9.715v48.617v16.063v39.143H0.047v7.664l2.954,1.771v9.432H0.047   v59.852c0,0,0,5.896,13.314,5.896c13.318,0,13.318-5.896,13.318-5.896v-59.852h-2.962v-9.432l2.962-1.771v-7.664h-8.383v-40.446   V86.81V39.807L23.223,30.092z"></path><path d="M142.694,121.448c-1.42-31.103-8.621-48.425-17.122-58.328c-4.384-5.096-9.089-8.009-12.929-9.516   c-3.713-1.467-6.555-1.665-7.724-1.677c-0.589-0.144-1.199-0.228-1.831-0.228H64.453c-2.469,0-4.661,1.16-6.076,2.961   c-0.676,0.667-1.248,1.461-1.665,2.377c-0.001,0.002-0.003,0.005-0.005,0.009v0.002c0,0,0-0.001,0-0.002l0.001,0   c-0.257,0.557-3.892,7.921-11.675,15.248c-5.84,5.476-13.83,10.953-24.734,13.998v16.493c16.357-3.599,28.387-11.712,36.426-19.539   v23.893c-0.081,0.571-0.137,1.149-0.137,1.742v107.939c0,6.828,5.537,12.363,12.363,12.363c6.828,0,12.365-5.535,12.365-12.363   v-81.273h4.772v81.273c0,6.828,5.537,12.363,12.363,12.363c6.828,0,12.365-5.535,12.365-12.363v-89v-18.939V70.965   c1.135,0.954,2.377,2.214,3.682,3.887c4.997,6.479,10.897,20.017,12.182,46.701c-0.32,0.271-0.633,0.56-0.941,0.86   c-2.903,1.652-5.424,4.389-7.412,7.803c-3.328,5.717-5.324,13.449-5.329,21.971c0.005,8.52,2.001,16.253,5.329,21.968   c0.068,0.117,0.141,0.229,0.21,0.344c0.657,1.944,1.409,3.766,2.247,5.434c3.281,6.512,7.996,10.964,13.714,11.006   c5.718-0.042,10.433-4.494,13.715-11.006c0.183-0.362,0.345-0.757,0.519-1.133c1.27-1.337,2.424-2.902,3.438-4.645   c3.327-5.715,5.324-13.448,5.328-21.968c-0.004-8.521-2.001-16.254-5.328-21.971C149.723,126.015,146.474,122.833,142.694,121.448z    M140.434,180.466c1.996-1.623,3.761-3.782,5.234-6.313c2.054-3.527,3.596-7.826,4.48-12.602c-0.609,5.89-1.99,11.2-3.887,15.475   C144.454,178.842,142.476,180.014,140.434,180.466z M121.272,173.217c-1.742-5.288-2.777-11.667-2.773-18.531   c-0.006-9.391,1.928-17.883,4.964-23.897c1.03-2.047,2.174-3.774,3.388-5.174c0.024,0.47,0.084,0.93,0.186,1.373   c-0.792,0.989-1.532,2.067-2.207,3.228c-3.33,5.717-5.327,13.449-5.331,21.971c0.004,8.52,2.001,16.253,5.331,21.968   c1.473,2.53,3.237,4.689,5.233,6.313C126.829,179.75,123.756,177.23,121.272,173.217z M127.418,172.642   c-3.006-5.142-4.926-12.409-4.922-20.456c-0.004-8.048,1.916-15.315,4.922-20.458c0.346-0.59,0.705-1.146,1.073-1.677   c1.466,1.907,3.763,3.134,6.334,3.135c0.083,0,0.165-0.002,0.247-0.004c2.752-0.084,5.137-1.549,6.512-3.709   c0.518,0.696,1.018,1.443,1.491,2.255c3.006,5.143,4.926,12.41,4.922,20.458c0.004,8.047-1.916,15.314-4.922,20.456   c-2.21,3.783-4.931,6.336-7.827,7.432C132.35,178.978,129.631,176.425,127.418,172.642z M134.497,187.934   c-3.212,0.034-6.482-2.164-9.233-6.252c2.059,1.274,4.32,1.997,6.734,2.004c1.117-0.003,2.201-0.166,3.25-0.46   c1.048,0.294,2.132,0.457,3.25,0.46c1.529-0.005,2.996-0.305,4.391-0.842C140.324,186.18,137.389,187.965,134.497,187.934z    M152.709,165.126c0.512-3.308,0.787-6.81,0.789-10.44c-0.004-9.535-1.893-18.184-5.03-24.688c0.382,0.546,0.753,1.121,1.108,1.73   c3.004,5.143,4.925,12.41,4.92,20.458C154.499,156.855,153.838,161.244,152.709,165.126z"></path></g></svg>