<svg xmlns="http://www.w3.org/2000/svg" xmlns:xlink="http://www.w3.org/1999/xlink" version="1.1" x="0px" y="0px" viewBox="0 0 186.34 267.425" style="enable-background:new 0 0 186.34 267.425;" xml:space="preserve"><g><path d="M172.796,139.548c1.518-0.344,3.055-0.734,4.613-1.19c4.242-1.24,6.673-5.683,5.436-9.922   c-1.24-4.242-5.683-6.675-9.922-5.435c-0.043,0.013-0.084,0.022-0.127,0.035C172.731,128.978,172.723,134.594,172.796,139.548z"></path><path d="M21.941,93.767c0.598,8.652,3.473,15.719,8.593,20.334c5.069,4.582,11.381,5.996,16.872,5.996c0.042,0,0.084,0,0.126,0   c6.667-0.033,12.769-1.8,17.638-3.603v30.628v25.748v82.191c0,6.828,5.537,12.363,12.365,12.363   c6.826,0,12.363-5.535,12.363-12.363v-74.465h4.771v74.465c0,6.828,5.537,12.363,12.365,12.363c6.826,0,12.363-5.535,12.363-12.363   V147.122c0-0.593-0.056-1.171-0.137-1.742v-18.847c8.162,7.1,20.378,14.047,36.374,14.668c0.044-1.589,0.068-3.225,0.068-4.925   c0-2.746-0.058-6.559-0.148-11.08c-11.99-0.67-20.711-6.076-26.934-11.754c-3.279-3.016-5.745-6.078-7.343-8.33   c-0.801-1.124-1.385-2.047-1.752-2.655c-0.184-0.305-0.313-0.53-0.387-0.664c-0.038-0.066-0.062-0.11-0.072-0.128l0,0   c-0.398-0.756-0.902-1.419-1.481-1.987c-1.416-1.783-3.598-2.931-6.053-2.931H72.897c-0.633,0-1.246,0.084-1.835,0.228   c-1.292,0.027-2.596,0.368-3.797,1.055c0,0,0,0-0.053,0.03c-0.469,0.263-3.428,1.864-7.301,3.327   c-3.857,1.482-8.676,2.741-12.38,2.709c-3.097-0.021-4.991-0.707-6.264-1.862c-1.214-1.115-2.761-3.382-3.307-8.971H57   c1.657,0,3-1.344,3-3c0-1.656-1.343-3-3-3h-0.667c-0.116-9.855-10.448-17.935-23.666-18.902v-4.098h-5.333v4.098   C14.115,69.33,3.784,77.41,3.668,87.265H3c-1.657,0-3,1.344-3,3c0,1.656,1.343,3,3,3h18.929   C21.931,93.432,21.929,93.598,21.941,93.767z M98.367,138.31c0.446-1.623,1.917-2.821,3.682-2.821c0.223,0,0.439,0.029,0.651,0.065   c1.806,0.311,3.182,1.874,3.182,3.768c0,2.117-1.716,3.834-3.833,3.834s-3.834-1.717-3.834-3.834   C98.215,138.969,98.278,138.634,98.367,138.31z M102.049,109.488c2.117,0,3.833,1.716,3.833,3.833c0,2.117-1.716,3.834-3.833,3.834   s-3.834-1.717-3.834-3.834C98.215,111.204,99.932,109.488,102.049,109.488z M102.049,122.488c2.117,0,3.833,1.716,3.833,3.833   c0,2.117-1.716,3.834-3.833,3.834s-3.834-1.717-3.834-3.834C98.215,124.204,99.932,122.488,102.049,122.488z M86.215,139.322   c0,2.117-1.716,3.834-3.833,3.834s-3.834-1.717-3.834-3.834c0-1.931,1.433-3.512,3.29-3.778c0.179-0.025,0.358-0.055,0.544-0.055   c1.701,0,3.126,1.115,3.627,2.648C86.132,138.512,86.215,138.905,86.215,139.322z M82.382,130.156   c-2.117,0-3.834-1.717-3.834-3.834c0-2.117,1.717-3.833,3.834-3.833s3.833,1.716,3.833,3.833   C86.215,128.439,84.499,130.156,82.382,130.156z M82.382,109.488c2.117,0,3.833,1.716,3.833,3.833c0,2.117-1.716,3.834-3.833,3.834   s-3.834-1.717-3.834-3.834C78.548,111.204,80.265,109.488,82.382,109.488z"></path><path d="M71.009,14.849l2.212,36.227c2.27-2.772,5.113-5.06,8.435-6.667c6.012-2.907,12.795-3.298,19.099-1.102   c0.292,0.101,0.58,0.206,0.866,0.318c3.244,1.262,6.071,3.121,8.411,5.399l1.826-34.335c2.535-1.575,4.095-3.688,4.084-6.014   c-0.019-4.824-6.736-8.707-15.003-8.675c-3.637,0.016-6.968,0.785-9.556,2.055c-2.599-1.248-5.935-1.994-9.572-1.978   c-8.268,0.032-14.954,3.968-14.934,8.791C66.884,11.192,68.461,13.295,71.009,14.849z"></path><path d="M73.46,54.997c-0.869,1.395-1.603,2.903-2.166,4.52c-4.084,11.732,2.117,24.556,13.851,28.639   c11.734,4.084,24.555-2.117,28.64-13.852c2.686-7.716,0.921-15.904-3.94-21.768c-2.53-3.051-5.897-5.473-9.913-6.87   C89.816,42.145,78.896,46.274,73.46,54.997z"></path><path d="M12.334,42.122c2.58,1.894,7.415,1.551,10.419,1.789c3.719,0.294,8.335,0.282,11.537,2.438   c3.211,2.161-2.172,4.153-3.699,4.824c-2.221,0.977-5.708,1.984-7.188,4.07c-2.375,3.346,4.367,5.649,6.419,6.491   c0.821,0.337,2.306-1.02,2.898-0.776c-2.088-0.857-7.102-2.406-6.951-5.405c0.112-2.233,4.521-3.674,6.09-4.365   c2.84-1.252,9.82-3.844,3.74-6.469c-5.85-2.525-12.861-1.136-18.954-2.771c-4.467-1.198-1.059-4.418,1.112-6.253   c7.023-5.935,15.848-3.352,23.232,0.29c0.769,0.379,2.371-1.036,2.898-0.775c-8.865-4.373-18.157-5.401-26.874-0.307   C15.355,35.872,9.188,39.812,12.334,42.122z"></path><g><g><path d="M184.342,199.54c-0.665-10.655-7.987-29.965-11.986-40.622c-3.995-10.655,0.667-105.217,0.667-110.549     c0-5.326-12.652-1.328-15.319,0c-2.663,1.336,0,69.261,0,87.906c0,18.646-2.663,27.97-5.328,33.299     c-2.661,5.327-5.991,14.649-7.99,25.303c-1.995,10.655-4.66,69.922-4.66,69.922c0,5.994,34.629-9.323,40.62-11.986     c5.994-2.662,5.994-5.994,5.994-5.994S185.008,210.195,184.342,199.54z M164.365,61.075c-2.206,0-3.995-1.79-3.995-4     c0-2.206,1.789-3.993,3.995-3.993c2.207,0,3.996,1.788,3.996,3.993C168.361,59.285,166.572,61.075,164.365,61.075z"></path></g></g></g></svg>