<svg xmlns="http://www.w3.org/2000/svg" xmlns:xlink="http://www.w3.org/1999/xlink" version="1.1" x="0px" y="0px" viewBox="0 0 211.094 229.366" style="enable-background:new 0 0 211.094 229.366;" xml:space="preserve"><g><path d="M64.99,89.475c-0.447-0.348-0.707-0.579-0.73-0.599l-0.253-0.225v1.802L64.99,89.475z"></path><ellipse transform="matrix(0.9739 -0.2268 0.2268 0.9739 -2.7303 21.2358)" cx="91.052" cy="22.5" rx="22.495" ry="22.495"></ellipse><path d="M154.116,103.365c-0.518,14.777-9.117,32.702-6.27,38.401c2.432,4.861,18.963,5.699,24.601,5.844v71.277   c-16.502,0.162-29.584,2.441-29.584,5.232c0,2.898,14.091,5.246,31.473,5.246c17.384,0,31.473-2.348,31.473-5.246   c0-2.791-13.081-5.07-29.584-5.232V147.61c5.638-0.145,22.171-0.982,24.601-5.844c2.938-5.875-6.295-24.742-6.295-39.761   c0-21.715,23.922-46.675,14.268-51.973c-16.514-9.063-19.558-8.151-22.188-11.287c-4.092-4.878-4.092-13.323-4.092-13.323h-6.294   v-4.331c1.127-0.981,1.888-2.805,1.888-4.9c0-0.2-0.008-0.397-0.021-0.592c1.169-1.037,1.909-2.547,1.909-4.233   c0-3.129-2.535-5.665-5.665-5.665c-3.128,0-5.665,2.536-5.665,5.665c0,1.686,0.74,3.195,1.91,4.233   c-0.014,0.194-0.021,0.392-0.021,0.592c0,2.096,0.761,3.92,1.888,4.9v4.331h-6.294c0,0,0,8.445-4.092,13.323   c-2.629,3.136-5.675,2.224-22.188,11.287c-7.314,4.016,4.65,19.328,10.874,35.961c1.987,5.311,3.395,10.756,3.395,16.012   C154.142,102.456,154.132,102.909,154.116,103.365z"></path><path d="M95.924,89.81c0.637,0.007,1.066-0.114,1.274-0.362c0.159-0.19,0.646-1.012,0.168-3.572   c-0.474-2.551-1.455-5.594-3.435-5.615c-1.697-0.018-3.827,1.724-4.44,2.337l-3.242,3.173l0.784,0.504   C88.548,87.247,93.101,89.78,95.924,89.81z"></path><path d="M64.007,126.086l20.479-19.697l-0.328-0.334l-0.113-0.596l-1.379-7.207l-1.391-7.271l-0.055-0.288l-0.617,0.604   c-1.588,1.553-3.541,2.328-5.807,2.304c-0.789-0.008-1.613-0.118-2.465-0.324l-8.325,8.293v7.311V126.086z"></path><path d="M5.081,151.919c-6.194,6.064-6.812,15.48-1.375,21.033c5.436,5.553,14.862,5.141,21.057-0.922l26.876-25.87   c0.527-0.027,1.058-0.092,1.589-0.229c3.373-0.868,5.681-3.764,5.971-7.048l4.809-4.629l1.688-1.624l23.041-22.179l1.301-1.252   l1.18,1.205l2.34-2.491l10.575-11.261l0.285-0.304c6.035-5.907,5.796-15.934-0.529-22.398c-6.328-6.464-16.347-6.918-22.381-1.011   L65.589,87.382c0,0,0.989,0.877,2.497,1.833l-4.079,4.06l-9.913,9.866c-0.001-0.178-0.005-0.359-0.005-0.535   c0.004-0.806,0.029-1.569,0.054-2.335c0.506-16.096,5.398-23.668,9.52-27.771c0.115-0.112,0.229-0.211,0.344-0.318v13.933   l0.238-0.216l15.915-14.44c3.105-3.038,7.35-4.715,11.898-4.666c4.894,0.052,9.726,2.149,13.258,5.758   c6.676,6.822,7.257,17.256,1.608,24.019c-0.349,0.417-0.715,0.823-1.11,1.21l-12.308,13.106l-0.833,0.887l-1.428,1.523   l-1.252-1.279l-1.259,1.212l-21.599,20.79l-3.13,3.013v79.788c0,6.828,5.537,12.363,12.365,12.363   c6.826,0,12.363-5.535,12.363-12.363v-81.273h4.771v81.273c0,6.828,5.537,12.363,12.365,12.363c6.826,0,12.363-5.535,12.363-12.363   V108.881c0-0.594-0.056-1.172-0.137-1.742V82.98c0.026,0.027,0.05,0.054,0.076,0.081c4.724,4.873,10.635,9.877,17.839,13.837   c4.79,2.636,10.184,4.792,16.096,6.07c0.009-0.318,0.034-0.645,0.034-0.959c0-5.481-1.671-11.322-3.915-16.967   c-1.55-0.646-3.056-1.369-4.513-2.167c-8.146-4.456-14.743-11.183-19.179-16.823c-2.221-2.813-3.907-5.339-5.013-7.121   c-0.555-0.892-0.962-1.597-1.222-2.059c-0.13-0.231-0.222-0.4-0.276-0.502c-0.029-0.05-0.046-0.084-0.055-0.101   c-0.937-1.817-2.475-3.115-4.244-3.794c-1.016-0.492-2.152-0.775-3.357-0.775H71.735c-0.649,0-1.276,0.089-1.879,0.24   c-0.365,0.01-0.731,0.037-1.102,0.099l-0.002-0.002c-0.983,0.174-8.613,1.6-16.25,9c-7.676,7.378-14.49,20.637-14.412,41.57   c0,3.999,0.238,8.291,0.744,12.898c0.091,0.83,0.192,1.672,0.302,2.523L5.081,151.919z M64.007,98.744l7.749-7.718   c2.48,0.854,5.263,0.981,7.448-1.157c5.147-5.036,8.87-8.683,8.87-8.683s8.799-8.893,11.26,4.325   c2.34,12.572-13.385,2.444-13.385,2.444l-2.708,2.651l1.812,9.475l0.957,5.004l1.318,1.346l-23.253,22.364l-0.068,0.066   l-5.526,5.314c-0.188-0.761-0.367-1.512-0.542-2.255c-1.842-7.874-2.938-14.798-3.464-20.858c-0.077-0.896-0.142-1.771-0.195-2.63   L64.007,98.744z M40.237,125.244c0.821,4.681,1.893,9.645,3.25,14.929c0.368,1.434,1.112,2.664,2.087,3.642   c0.479,0.481,1.019,0.893,1.6,1.236l-22.109,21.265c1.271-3.941,0.373-8.436-2.725-11.602c-3.098-3.166-7.573-4.158-11.54-2.973   l29.03-28.916C39.958,123.623,40.094,124.429,40.237,125.244z M7.534,169.206c-3.141-3.211-3.086-8.359,0.123-11.5   c3.21-3.143,8.359-3.088,11.499,0.123c3.142,3.209,3.088,8.357-0.123,11.5C15.824,172.47,10.675,172.413,7.534,169.206z"></path></g></svg>