<svg xmlns="http://www.w3.org/2000/svg" xmlns:xlink="http://www.w3.org/1999/xlink" version="1.1" x="0px" y="0px" viewBox="0 0 171.546 229.183" style="enable-background:new 0 0 171.546 229.183;" xml:space="preserve"><g><ellipse transform="matrix(0.9739 -0.2268 0.2268 0.9739 -3.8426 11.5543)" cx="48.363" cy="22.5" rx="22.495" ry="22.495"></ellipse><path d="M112.434,86.921l-0.002-11.834c-10.468-2.475-18.982-6.477-25.345-10.304c-4.436-2.671-7.81-5.246-10.029-7.11   c-1.109-0.931-1.93-1.684-2.45-2.179c-0.259-0.246-0.443-0.431-0.552-0.538c-0.055-0.056-0.089-0.092-0.104-0.107l-0.001,0.001   c-0.061-0.064-0.128-0.12-0.19-0.183c-1.415-1.806-3.609-2.97-6.082-2.97H29.046c-0.644,0-1.266,0.087-1.863,0.235   c-1.233,0.03-2.477,0.341-3.633,0.974v-0.002c-0.649,0.363-6.384,3.574-12.16,10.943C5.613,71.176-0.036,82.878,0,98.928   c-0.002,10.856,2.513,23.601,8.812,38.387c1.294,3.044,4.252,4.87,7.363,4.87c1.045,0,2.108-0.206,3.13-0.642   c0.748-0.318,1.42-0.738,2.012-1.235v76.512c0,6.828,5.537,12.363,12.365,12.363c6.826,0,12.363-5.535,12.363-12.363v-81.273h4.771   v81.273c0,6.828,5.537,12.363,12.365,12.363c6.826,0,12.363-5.535,12.363-12.363V108.88c0-0.593-0.056-1.171-0.137-1.742V76.331   c1.08,0.71,2.216,1.432,3.425,2.16c8.162,4.915,19.32,10.06,33.134,12.873C112.479,88.755,112.435,86.968,112.434,86.921z    M16,98.928c0.026-9.505,2.428-16.305,5.317-21.25v31.202v16.572C17.414,114.842,16,106.081,16,98.928z"></path><path d="M150.885,108.766c-11.904-8.181-11.424-21.915-11.424-21.915V70.572c0.104-3.025,0.984-4.849,2.312-5.816   c7.572-4.31,8.956-21.734,8.956-21.734h-0.023c0.003-0.052,0.016-0.102,0.016-0.154v-1.861c0-1.712-1.389-3.101-3.101-3.101   h-41.348c-1.713,0-3.102,1.389-3.102,3.101v1.861c0,0.053,0.014,0.103,0.016,0.154h-0.022c0,0,1.338,16.78,8.548,21.475   l-0.01,0.002c0.092,0.051,0.181,0.107,0.269,0.166c0.015,0.009,0.03,0.02,0.046,0.028c1.451,0.991,2.386,2.957,2.415,6.334v4.515   v11.311c0,0,0.068,1.991-0.501,4.905c-0.927,4.745-3.547,11.941-10.922,17.01c-11.887,8.167-39.075,23.362-1.446,90.969   c0,0,7.047,13,3.905,20.518c-0.49,0.896-1.466,1.061-1.699,1.061l0.007,0.009c-1.557,0.165-2.774,1.467-2.774,3.068v0.413   c0,1.713,1.388,3.102,3.101,3.102h45.69c1.713,0,3.102-1.389,3.102-3.102v-0.413c0-1.598-1.211-2.896-2.762-3.067l0.008-0.01   c-0.252,0-1.356-0.186-1.798-1.267c-2.931-7.546,3.991-20.311,3.991-20.311C189.961,132.129,162.772,116.933,150.885,108.766z"></path></g></svg>