<svg xmlns="http://www.w3.org/2000/svg" xmlns:xlink="http://www.w3.org/1999/xlink" version="1.1" x="0px" y="0px" viewBox="0 0 170.285 237.423" style="enable-background:new 0 0 170.285 237.423;" xml:space="preserve"><g><path d="M41.691,60.83c3.988,4.036,7.031,9.56,9.093,16.484c2.062-6.922,5.102-12.443,9.077-16.467   c0.904-0.892,1.729-1.898,2.488-2.984H39.218C39.972,58.943,40.792,59.944,41.691,60.83z"></path><path d="M9.163,153.666c0.238,0,0.477-0.01,0.718-0.032c4.401-0.39,7.652-4.275,7.26-8.676C16.348,136.017,16,128.154,16,121.252   c-0.028-23.493,4.105-35.628,7.739-41.371v40.238v13.864v91.075c0,6.829,5.536,12.363,12.363,12.363   c6.828,0,12.364-5.534,12.364-12.363v-83.348h4.636v83.348c0,6.829,5.536,12.363,12.363,12.363c6.828,0,12.364-5.534,12.364-12.363   v-91.075V120.12V75.632c1.764,0.763,3.853,1.869,6.257,3.485c2.683,1.813,5.754,4.291,9.134,7.651v-5.57   c0-4.743,0.841-9.292,2.379-13.509c-0.861-0.643-1.714-1.26-2.549-1.825c-9.961-6.77-17.974-7.959-21.795-7.932   c-0.055,0-0.099,0.002-0.152,0.003c-0.329-0.043-0.661-0.072-1.001-0.072h-0.434c-0.026,0.049-0.051,0.098-0.078,0.147   c-1.447,2.648-3.175,5.12-5.282,7.254c-0.684,0.675-1.318,1.41-1.914,2.185c-6.684,8.697-8.029,23.07-8.296,28.19   c2.387,1.225,3.959,3.715,3.959,6.469c0,4.011-3.263,7.273-7.275,7.273c-4.009,0-7.271-3.263-7.271-7.273   c0-2.754,1.571-5.244,3.958-6.469c-0.268-5.124-1.616-19.508-8.294-28.189c-0.592-0.771-1.222-1.5-1.901-2.17   c-2.111-2.139-3.843-4.615-5.291-7.267c-0.027-0.049-0.052-0.1-0.079-0.149h-0.438c-0.483,0-0.953,0.05-1.411,0.135   c-1.715,0.094-4.276,0.495-7.232,1.812c-5.308,2.31-11.412,7.66-15.659,17.267C2.861,86.706,0.012,100.539,0,121.252   c0,7.437,0.374,15.767,1.206,25.12C1.574,150.532,5.064,153.666,9.163,153.666z"></path><path d="M28.323,25.457c-0.743-0.017-1.356,0.572-1.37,1.314h-0.002c0,0.009-0.002,0.143-0.002,0.391   c0.048,2.699,0.187,18.816,6.995,30.702c0.142,0.248,0.292,0.491,0.44,0.735c1.185,1.957,2.554,3.789,4.15,5.406   c0.23,0.228,0.453,0.464,0.674,0.703c8.506,9.182,9.927,26.304,10.104,32.123c-2.312,0.644-4.011,2.761-4.011,5.277   c0,3.028,2.456,5.483,5.483,5.483c3.027,0,5.482-2.455,5.482-5.483c0-2.517-1.698-4.633-4.011-5.277   c0.178-5.818,1.599-22.93,10.097-32.115c0.223-0.242,0.448-0.481,0.682-0.711c1.595-1.615,2.962-3.446,4.147-5.4   c0.149-0.246,0.3-0.491,0.444-0.741c6.808-11.886,6.947-28.003,6.995-30.702c0-0.248-0.002-0.382-0.002-0.391h-0.002   c-0.014-0.741-0.627-1.33-1.37-1.314c-0.068,0.002-0.126,0.032-0.191,0.043c-0.085-0.597-0.188-1.19-0.32-1.774   c-0.327-1.447-0.796-2.85-1.394-4.193c2.857-1.914,4.739-5.17,4.739-8.867C76.081,4.775,71.305,0,65.414,0   c-4.48,0-8.31,2.766-9.889,6.681c-6.313-1.363-12.598,0.067-17.54,3.485h16.788c-0.008,0.167-0.025,0.331-0.025,0.5   c0,1.227,0.218,2.402,0.6,3.5h-21.76c-2.223,2.632-3.877,5.811-4.712,9.397c-0.013,0.056-0.022,0.113-0.035,0.169   c-0.133,0.59-0.239,1.18-0.323,1.769C28.451,25.489,28.392,25.458,28.323,25.457z M57.123,10.791c0-0.211,0.016-0.418,0.032-0.625   c0.075-1.009,0.33-1.966,0.735-2.842C59.203,4.478,62.074,2.5,65.414,2.5c4.58,0,8.292,3.711,8.292,8.291   c0,2.752-1.345,5.183-3.408,6.691c-1.371,1.003-3.055,1.601-4.884,1.601c-3.376,0-6.275-2.021-7.568-4.917   C57.385,13.134,57.123,11.994,57.123,10.791z M45.684,50.573c8.756,2.039,17.505-1.341,22.742-7.948   c1.001-1.263,1.87-2.645,2.59-4.129c-0.941,6.153-2.812,13.595-6.494,19.367c-0.991,1.555-2.113,2.989-3.385,4.242   c-6.129,6.204-8.998,15.415-10.352,23.068c-1.354-7.653-4.223-16.864-10.351-23.068c-1.271-1.254-2.394-2.688-3.385-4.242   c-3.682-5.772-5.553-13.216-6.494-19.369c0.712,1.463,1.582,2.844,2.591,4.122C36.195,46.476,40.521,49.371,45.684,50.573z"></path><path d="M95.219,199.521c0,20.729,16.805,37.533,37.533,37.533c20.73,0,37.533-16.804,37.533-37.533v-52.727H95.219V199.521z"></path><path d="M170.285,133.927V81.199c0-20.729-16.804-37.533-37.533-37.533c-16.445,0-30.411,10.581-35.484,25.304   c-1.321,3.835-2.049,7.946-2.049,12.229v7.624v45.104H170.285z M163.623,84.511c-5.514-18.378-18.838-29.92-35.838-34   C164.785,49.591,163.623,84.511,163.623,84.511z"></path></g></svg>