<svg xmlns="http://www.w3.org/2000/svg" xmlns:xlink="http://www.w3.org/1999/xlink" version="1.1" x="0px" y="0px" viewBox="0 0 199.793 229.183" style="enable-background:new 0 0 199.793 229.183;" xml:space="preserve"><g><path d="M58.003,184.004h0.132v-1.735v-46.722V98.153v-1.971v-1.999h1.999h16.359V70.313c1.036,0.562,2.152,1.249,3.337,2.11   c3.74,2.736,8.254,7.223,12.729,14.761c1.24,2.088,2.477,4.416,3.693,7c0.306,0.65,0.611,1.315,0.915,1.999   c0.742,1.674,1.474,3.45,2.193,5.334c0.379,0.993,0.755,2.011,1.126,3.065c0.003,0.008,0.007,0.015,0.01,0.023   c0.26,0.734,0.627,1.397,1.06,1.999c1.503,2.086,3.921,3.331,6.476,3.331c0.879,0,1.772-0.146,2.649-0.453   c1.608-0.564,2.918-1.592,3.842-2.878c0.441-0.615,0.794-1.287,1.047-1.999c0.347-0.978,0.504-2.025,0.448-3.088   c-0.039-0.743-0.178-1.493-0.437-2.23c-0.371-1.06-0.749-2.089-1.132-3.104c-0.255-0.676-0.512-1.343-0.772-1.999   c-0.979-2.47-1.992-4.801-3.033-7C103.816,72.764,95.779,64,88.386,58.875c-7.631-5.318-14.297-6.596-17.499-6.873   c-0.675-0.193-1.386-0.302-2.123-0.302H30.129c-0.647,0-1.271,0.088-1.872,0.238c-0.685,0.019-1.378,0.117-2.066,0.321   c-0.658,0.217-6.745,2.025-13.199,7.583c-3.21,2.782-6.494,6.557-8.956,11.5C1.571,76.275-0.008,82.351,0,89.356   c0.025,12.611,4.884,27.938,17.317,47.172c1.208,1.867,3.066,3.051,5.084,3.473v76.819c0,6.828,5.537,12.363,12.365,12.363   c6.826,0,12.363-5.535,12.363-12.363v-81.273h4.771v81.03l5.796-30.939L58.003,184.004z M16,89.356   c0.011-4.669,0.991-8.109,2.361-10.884c1.105-2.226,2.532-4.044,4.039-5.533v35.941v4.17C17.607,102.938,15.986,95.128,16,89.356z"></path><ellipse transform="matrix(0.9739 -0.2268 0.2268 0.9739 -3.8143 11.8001)" cx="49.446" cy="22.5" rx="22.495" ry="22.495"></ellipse><path d="M118.022,101.516c0.044,1.054-0.085,2.094-0.362,3.088h65.29v69.242H76.629h-7.837v-38.301v-30.941h7.062h0.639h21.873   c-0.378-1.053-0.763-2.08-1.155-3.088c-0.721-1.853-1.468-3.633-2.24-5.334H76.493H60.134v1.056v38.308v46.722h16.495h114.505   V96.182h-74.553c0.298,0.803,0.596,1.609,0.887,2.442C117.803,99.58,117.982,100.553,118.022,101.516z"></path><path d="M76.629,186.006H59.663l-6.706,35.801l-1.007,5.376h5.585h13.461h128.797l-7.714-41.177H76.629z M114.378,222.923   l0.282-9.602h22.423l0.282,9.602H114.378z M76.629,209.353H65.372l2.903-18.084h8.354h106.838l2.902,18.084H76.629z"></path><rect x="79.246" y="128.265" width="6" height="22"></rect><rect x="122.871" y="128.265" width="6" height="22"></rect><rect x="166.496" y="128.265" width="6" height="22"></rect><path d="M92.058,139.849c0,6.628,5.371,12,11.999,12c6.628,0,12.001-5.372,12.001-12c0-6.629-5.373-12-12.001-12   C97.429,127.849,92.058,133.22,92.058,139.849z M104.058,131.848c4.419,0,8,3.581,8,8c0,4.419-3.581,8-8,8c-4.418,0-8-3.581-8-8   C96.058,135.429,99.64,131.848,104.058,131.848z"></path><path d="M159.683,139.849c0-6.629-5.373-12-12.001-12c-6.628,0-11.999,5.371-11.999,12c0,6.628,5.371,12,11.999,12   C154.31,151.849,159.683,146.477,159.683,139.849z M139.683,139.848c0-4.419,3.582-8,8-8c4.419,0,8,3.581,8,8c0,4.419-3.581,8-8,8   C143.265,147.848,139.683,144.267,139.683,139.848z"></path></g></svg>