<svg xmlns="http://www.w3.org/2000/svg" xmlns:xlink="http://www.w3.org/1999/xlink" version="1.1" x="0px" y="0px" viewBox="0 0 155.777 274.79" style="enable-background:new 0 0 155.777 274.79;" xml:space="preserve"><g><path d="M16.228,173.427v-18.939V140.71c-0.154-1.47-0.227-2.861-0.226-4.169c0.005-1.367,0.089-2.65,0.226-3.873v-1.298   c0.214-0.962,0.479-1.966,0.769-2.947c0.4-1.352,0.84-2.645,1.231-3.688v25.585v4.169v18.939v12.054v76.946   c0,6.828,5.537,12.363,12.365,12.363c6.826,0,12.363-5.535,12.363-12.363v-81.273h4.771v81.273c0,6.828,5.537,12.363,12.365,12.363   c6.826,0,12.363-5.535,12.363-12.363V154.487c0-0.593-0.056-1.171-0.137-1.741V116.6c0.641,0.184,1.307,0.362,2,0.535   c4.024,1.003,8.896,1.775,14.47,1.788c0.075,0,0.151,0,0.226,0c12.315,0.001,27.874-4.095,43.205-17.09   c3.377-2.849,3.807-7.895,0.958-11.273c-2.849-3.377-7.896-3.806-11.273-0.958c-12.741,10.683-24.068,13.269-33.115,13.319   c-5.749,0.003-10.573-1.143-13.893-2.27c-0.779-0.265-1.466-0.526-2.068-0.77c-0.681-0.275-1.252-0.529-1.686-0.734   c-0.408-0.195-0.701-0.345-0.867-0.436c-0.075-0.042-0.125-0.068-0.148-0.082c-0.007-0.004-0.007-0.004-0.007-0.004v0.002   c-1.151-0.674-2.402-1.022-3.649-1.083c-0.603-0.151-1.23-0.24-1.88-0.24H25.956c-0.509,0-1.004,0.052-1.484,0.146   c0.052-0.014,0.101-0.033,0.153-0.045c-0.668,0.016-1.493,0.156-2.293,0.379c-0.464,0.129-0.917,0.285-1.327,0.464   c-0.188,0.083-0.37,0.168-0.537,0.259h-0.003c-0.239,0.135-1.495,0.891-2.925,1.912c-0.075,0.053-0.15,0.109-0.225,0.164   c-0.147,0.106-0.292,0.211-0.44,0.321c-0.004,0.008-0.008,0.017-0.012,0.024c-1.928,1.488-4.406,3.696-6.91,6.75   c-5,6.055-9.986,15.788-9.953,28.859c0.005,12.571,4.476,27.76,16.228,45.92V173.427z M41.474,102.791h3.8h3.8l1.9,7.5l-0.29,0.458   c-1.566,1.305-3.484,1.958-5.412,1.96c-1.926-0.002-3.84-0.653-5.404-1.954l-0.294-0.464L41.474,102.791z M41.246,114.97   c1.297,0.486,2.661,0.74,4.025,0.739h0.003c0,0,0.003,0,0.006,0c1.363,0,2.726-0.254,4.021-0.741l5.473,40.323l-9.5,12l-9.5-12   L41.246,114.97z"></path><ellipse transform="matrix(0.9739 -0.2268 0.2268 0.9739 -14.2661 12.042)" cx="45.273" cy="68.107" rx="22.495" ry="22.495"></ellipse><path d="M88.256,49.547c3.485,3.101,5.675,12.708-2.517,19.671c4.974,1.82,25.675-9.42,31.537-9.42   c21.264,0,38.5-13.387,38.5-29.899C155.777,13.386,138.54,0,117.277,0c-21.264,0-38.5,13.386-38.5,29.898   C78.777,37.42,82.354,44.293,88.256,49.547z"></path></g></svg>