<svg xmlns="http://www.w3.org/2000/svg" xmlns:xlink="http://www.w3.org/1999/xlink" version="1.1" x="0px" y="0px" viewBox="0 0 186.037 230.666" style="enable-background:new 0 0 186.037 230.666;" xml:space="preserve"><g><path d="M98.365,157.328v60.975c0,6.828,5.537,12.363,12.363,12.363c6.828,0,12.365-5.535,12.365-12.363v-65.868   c-6.467,2.98-14.15,4.925-23.203,4.925C99.385,157.359,98.875,157.341,98.365,157.328z"></path><path d="M68.865,218.303c0,6.828,5.537,12.363,12.363,12.363c6.828,0,12.365-5.535,12.365-12.363v-61.265   c-7.854-0.757-16.119-2.906-24.729-6.425V218.303z"></path><path d="M160.813,95.974c4.129-1.573,6.201-6.196,4.627-10.325c-0.871-2.282-2.674-3.931-4.809-4.687V96.04   C160.691,96.017,160.752,95.998,160.813,95.974z"></path><path d="M80.549,48.334h31c2.209,0,4-1.791,4-4v-9.132c1.072-1.865,1.896-3.915,2.408-6.118c1.346-5.774,0.33-11.542-2.408-16.306   V4c0-2.209-1.791-4-4-4h-31c-2.209,0-4,1.791-4,4v8.764c-1.072,1.865-1.896,3.914-2.41,6.117   c-1.344,5.773-0.328,11.543,2.41,16.306v9.147C76.549,46.543,78.34,48.334,80.549,48.334z M81.799,17.334c0-2.209,1.791-4,4-4h20.5   c2.209,0,4,1.791,4,4v5c0,2.209-1.791,4-4,4h-20.5c-2.209,0-4-1.791-4-4V17.334z"></path><path d="M57.008,142.757c4.094,2.222,8.045,4.114,11.857,5.708c9,3.759,17.225,5.832,24.729,6.571   c1.625,0.161,3.215,0.258,4.771,0.296c0.496,0.013,0.994,0.028,1.484,0.028c8.906,0.006,16.631-1.975,23.244-5.175   c8.248-3.991,14.766-9.881,19.67-16.199c7.906-10.217,11.836-21.354,12.623-28.318h1.912V103h1.332v-6.239V80.535V63.507   l27.406-17.979l-3.291-5.017L148.465,63v20.002v16.202V103h1.332v2.668h1.582c-0.803,5.996-4.508,16.6-11.77,25.86   c-4.279,5.472-9.727,10.524-16.516,14.164c-6.471,3.47-14.158,5.657-23.244,5.665c-0.488,0-0.986-0.015-1.484-0.027   c-1.549-0.04-3.139-0.141-4.771-0.312c-7.373-0.772-15.598-2.937-24.729-6.912c-3.205-1.396-6.516-3.001-9.947-4.863   c-2.816-1.528-5.5-2.844-8.068-3.974c0.039-0.716,0.078-1.433,0.123-2.134c1.955-30.463,9.336-46.588,15.519-54.918   c0.863-1.161,1.703-2.167,2.51-3.055v33.459c-0.08,0.571-0.137,1.149-0.137,1.742v31.558c8.713,3.87,16.986,6.241,24.729,7.082   v-11.974h4.771v12.299c0.496,0.013,0.992,0.03,1.484,0.03c8.574-0.008,16.34-1.991,23.244-5.905v-14.15v-18.939V92.316   c0.318,0.273,0.623,0.553,0.957,0.817c4.803,3.845,11.406,6.435,19.029,6.435c0.059,0,0.119,0,0.18-0.001   c1.049,0,2.121-0.059,3.207-0.149V83.334c-1.16,0.156-2.234,0.234-3.207,0.234c-4.348-0.044-6.969-1.212-9.295-2.992   c-3.443-2.642-5.961-7.527-7.303-11.989c-0.682-2.207-1.094-4.243-1.324-5.675c-0.117-0.716-0.186-1.281-0.227-1.642   c-0.02-0.182-0.033-0.309-0.039-0.383c0-0.015-0.002-0.027-0.002-0.037c-0.291-4.186-3.754-7.392-7.875-7.442   c-0.588-0.143-1.199-0.227-1.83-0.227H76.73c-0.635,0-1.248,0.085-1.838,0.23c-0.666-0.004-1.34,0.065-2.016,0.236l-0.002-0.002   c-1.383,0.311-10.471,3.178-19.231,15.04c-8.164,11.002-15.936,29.337-18.373,59.746c-0.053,0.661-0.102,1.33-0.15,2.003   c-1.955-0.294-3.824-0.445-5.6-0.447c-12.447-0.065-20.225,7.275-24.301,16.649C1.057,156.024,0.012,167.574,0,177.352   c0,11.415,1.479,20.405,1.49,20.471l3.947-0.648c-0.002-0.005-0.358-2.153-0.717-5.733C4.359,187.861,4,182.888,4,177.352   c-0.012-9.476,1.084-20.606,4.875-29.089c3.871-8.49,9.854-14.208,20.646-14.273c1.658-0.002,3.443,0.145,5.35,0.45   c-0.021,0.389-0.045,0.77-0.064,1.163c-0.016,0.287-0.012,0.571,0.004,0.852c0.225,4.034,3.465,7.331,7.59,7.535   c0.135,0.007,0.268,0.01,0.402,0.01c2.494,0,4.74-1.16,6.215-2.982c0.42-0.52,0.781-1.093,1.063-1.711   C52.283,140.302,54.588,141.441,57.008,142.757z"></path></g></svg>