<svg xmlns="http://www.w3.org/2000/svg" xmlns:xlink="http://www.w3.org/1999/xlink" version="1.1" x="0px" y="0px" viewBox="0 0 161.93 229.539" style="enable-background:new 0 0 161.93 229.539;" xml:space="preserve"><g><ellipse transform="matrix(0.9739 -0.2268 0.2268 0.9739 -3.6745 13.0169)" cx="54.812" cy="22.5" rx="22.495" ry="22.495"></ellipse><path d="M31.348,52.322c-0.578,0.211-7.87,2.581-15.571,9.004c-3.838,3.22-7.783,7.506-10.787,13.099   C1.98,80.003-0.012,86.898,0,94.816c0.01,12.305,4.633,26.733,15.957,43.789c1.54,2.321,4.082,3.578,6.673,3.578   c1.519,0,3.055-0.432,4.416-1.336c0.254-0.169,0.493-0.352,0.721-0.543v76.516c0,6.828,5.537,12.363,12.365,12.363   c6.826,0,12.363-5.535,12.363-12.363v-81.273h4.771v81.273c0,6.828,5.537,12.363,12.365,12.363c6.826,0,12.363-5.535,12.363-12.363   V108.88c0-0.593-0.056-1.172-0.137-1.742V76.331c1.08,0.71,2.217,1.432,3.426,2.161c7.237,4.358,16.824,8.905,28.536,11.841   c0.245-1.393,0.461-3.048,0.634-5.058c0.289-3.364-0.7-7.859-1.952-11.937c-7.595-2.403-13.946-5.535-18.964-8.554   c-4.437-2.671-7.812-5.247-10.03-7.11c-1.108-0.932-1.929-1.683-2.448-2.18c-0.261-0.246-0.445-0.429-0.554-0.537   c-0.042-0.044-0.073-0.075-0.091-0.094l0.001-0.001c-0.066-0.07-0.138-0.131-0.206-0.197c-1.415-1.804-3.608-2.967-6.079-2.967   H35.495c-0.636,0-1.251,0.086-1.843,0.23c-0.764,0.018-1.538,0.143-2.302,0.393H31.348z M16,94.816   c0.012-5.304,1.251-9.379,3.085-12.823c2.224-4.166,5.504-7.392,8.682-9.739v36.627v18.522C18.808,113.255,15.99,102.563,16,94.816   z"></path><path d="M116.446,85.448c-0.181,2.113-0.411,3.861-0.676,5.343c-0.728,4.074-1.722,6.076-2.719,7.672   c-1.697,2.716-8.055,7.196-11.203,8.035c-3.396,0.905-3.848,0.566-4.301,4.753c-0.34,3.961,2.037,4.301,3.848,4.64   c1.334,0.251,31.461,1.019,31.461,1.019s-1.02,1.698-1.02,2.263c0,0.567,0.792,2.264,0.792,2.264l-32.138-0.679   c0,0-2.717,0.113-2.83,1.811c-0.113,1.698,2.603,1.924,2.603,1.924l35.195,1.472c0,0-0.906,1.584-0.906,2.15   c0,0.339,0.792,2.376,0.792,2.376l-34.176-0.905c0,0-2.716,0.113-2.829,1.471c0.113,1.812,2.037,2.151,2.603,2.151   c0.566,0,37.006,1.471,37.006,1.471s-1.018,1.698-1.018,2.263c0,0.566,0.904,2.264,0.904,2.264l-35.76-0.906   c0,0-2.83,0.114-2.717,1.698c0.113,1.585,1.81,2.037,2.603,2.149c0.792,0.114,37.91,1.359,37.91,1.359s-1.245,1.471-1.245,2.263   c0,0.793,1.245,2.264,1.245,2.264s-35.309-1.132-36.553-1.019c-1.244,0.112-3.508,0.34-3.508,1.924c0,1.584,2.376,2.036,3.395,2.15   c1.019,0.113,37.798,1.131,37.798,1.131s-1.358,1.472-1.358,2.377s1.244,2.149,1.244,2.149l-37.57-1.018   c0,0-2.828,0.113-2.828,1.698c0,1.583,2.941,1.923,2.941,1.923l38.25,1.812c0,0-1.244,1.245-1.244,2.149   c0,0.905,1.244,2.377,1.244,2.377l-37.798-1.359c0,0-3.169-0.112-3.169,1.698c0,1.811,3.057,1.924,3.057,1.924l38.024,1.811   c0,0-0.793,0.905-0.907,2.037c-0.112,1.132,0.793,2.49,0.793,2.49l-37.57-1.131c0,0-3.735,0-3.621,1.583   c0.112,1.584,2.263,1.924,3.394,1.924c1.132,0,37.684,1.924,37.684,1.924s-1.018,1.472-1.018,2.037c0,0.566,0.68,2.15,0.68,2.15   l-37.798-1.245c0,0-3.281-0.113-3.395,1.358c-0.113,1.472,1.811,1.81,2.941,1.924c1.133,0.113,38.139,2.15,38.139,2.15   s-1.02,0.904-1.02,1.924c0,1.019,0.679,2.489,0.679,2.489l-38.251-1.471c0,0-2.828,0.453-2.828,1.696   c0,1.245,2.037,2.038,2.716,2.038c0.679,0,37.231,1.584,37.231,1.584s-1.131,1.471-1.131,2.15c0,0.679,0.791,2.264,0.791,2.264   s-37.118-1.358-37.797-1.358c-0.68,0-2.717,0.679-2.604,1.697c0.113,1.019,1.698,1.925,2.49,1.925s35.986,1.583,35.986,1.583   s-0.791,1.132-0.904,2.037c-0.113,0.906,0.792,2.716,0.792,2.716s-36.893-1.697-37.231-1.697c-0.34,0-2.377,0.68-2.377,1.697   c0,1.019,1.357,1.812,2.264,2.038c0.904,0.226,34.062,1.696,34.062,1.696s-0.905,0.906-0.905,1.585   c0,0.679,0.679,1.811,0.679,1.811h-32.592c0,0-4.752,0-4.752,3.395c0,3.395,1.923,5.432,3.508,5.771   c1.584,0.339,15.164,4.526,25.688,4.98c10.525,0.452,21.39-4.414,26.143-11.204c4.753-6.79,8.714-17.88,9.279-24.67   c0.565-6.79,1.697-30.895,0-42.891c-1.588-11.22-8.373-49.68-8.939-52.396c-0.498-2.386-4.48-25.883-5.093-30.781   c-0.565-4.526-1.924-25.802-1.924-25.802s-0.499-14.684-10.977-18.108c-11.43-3.733-18.031-2.249-20.596-1.583   c-3.057,0.791-10.299,3.847-12.336,13.127c-2.036,9.279,8.149,25.01,9.167,26.934c0.599,1.131,2.839,6.252,4.447,11.888   C115.91,77.977,116.726,82.183,116.446,85.448z M122.833,34.077c3.611,0,6.539,2.928,6.539,6.538c0,3.612-2.928,6.54-6.539,6.54   c-3.611,0-6.539-2.928-6.539-6.54C116.293,37.005,119.221,34.077,122.833,34.077z"></path></g></svg>