<svg xmlns="http://www.w3.org/2000/svg" xmlns:xlink="http://www.w3.org/1999/xlink" version="1.1" x="0px" y="0px" viewBox="0 0 155.509 230.022" style="enable-background:new 0 0 155.509 230.022;" xml:space="preserve"><g><path d="M34.948,109.299c-0.021-0.258-0.039-0.518-0.039-0.781v-4.529l-4.105,4.39c1.032,0.71,2.107,1.418,3.23,2.123   L34.948,109.299z"></path><path d="M96.631,82.624c-7.337-2.43-12.968-6.619-17.292-10.938c-3.293-3.324-5.711-6.693-7.27-9.186   c-0.779-1.246-1.343-2.271-1.7-2.955c-0.179-0.343-0.306-0.601-0.382-0.758c-0.036-0.08-0.062-0.134-0.073-0.161   c-0.933-2.102-2.842-3.46-4.956-3.787c-2.697-1.034-9.631-3.175-20.872-3.175c-14.814,0-22.166,3.724-22.166,3.724v0.001   c-0.772,0.148-1.532,0.433-2.238,0.877c-0.302,0.198-4.866,3.06-9.647,8.24c-2.386,2.6-4.835,5.795-6.751,9.632   C1.372,77.964,0,82.493,0,87.508c-0.023,5.526,1.741,11.455,5.57,17.205c0.698,1.049,1.457,2.092,2.295,3.125   c1.823,2.26,3.975,4.497,6.476,6.721c2.369,2.105,5.061,4.197,8.106,6.281c2.615,1.791,5.488,3.575,8.646,5.356   c0.86,0.485,1.734,0.971,2.637,1.455c0.978,0.525,2.031,0.773,3.068,0.774c1.414,0,2.797-0.468,3.93-1.325   c0.671-0.508,1.247-1.156,1.692-1.927c0.035-0.061,0.077-0.114,0.11-0.176c1.27-2.366,0.924-5.166-0.654-7.139   c-0.053-0.066-0.112-0.128-0.169-0.192c-0.503-0.58-1.111-1.085-1.827-1.47c-0.031-0.017-0.061-0.033-0.093-0.051   c-0.935-0.502-1.831-1.002-2.707-1.5c-1.506-0.856-2.927-1.706-4.263-2.547c-0.375-0.236-0.741-0.471-1.103-0.705   c-0.808-0.524-1.588-1.046-2.333-1.563c-0.744,0.64-1.661,0.981-2.591,0.981c-0.98,0-1.96-0.357-2.73-1.079   c-1.317-1.232-1.598-3.14-0.841-4.68c-2.135-1.872-3.865-3.67-5.225-5.366c-0.554-0.696-1.045-1.369-1.489-2.025   c-1.238-1.827-2.073-3.505-2.615-5.069c-0.634-1.831-0.874-3.509-0.887-5.086c0-2.629,0.708-5.141,1.916-7.57   c1.201-2.433,2.933-4.713,4.708-6.646l-2.716,21.203c0.684,1.272,1.558,2.577,2.649,3.949c1.326,1.654,2.963,3.336,4.884,5.024   l11.158-11.935c0.732-0.783,1.706-1.198,2.697-1.254c1.708-0.504,3.927-0.516,6.359-0.516c2.434,0,4.654,0.013,6.362,0.517   c0.99,0.057,1.962,0.472,2.693,1.253l11.73,12.547c1.509,1.613,1.425,4.146-0.188,5.654c-0.771,0.721-1.752,1.078-2.731,1.078   c-1.068-0.001-2.136-0.427-2.923-1.268l-5.193-5.554v4.526c0,0.264-0.019,0.522-0.039,0.78l1.574,2.07l4.483,5.893   c0.954,1.257,1.081,2.968,0.318,4.354l-6.333,11.499c-0.729,1.323-2.097,2.071-3.507,2.071c-0.652,0-1.316-0.16-1.927-0.497   c-1.936-1.066-2.641-3.501-1.574-5.435l5.076-9.222l-2.533-3.33c-1.086,0.703-2.32,1.192-3.646,1.418   c-0.535,0.091-1.082,0.148-1.643,0.148c-0.068,0-0.135-0.009-0.202-0.01c1.127,2.362,1.166,5.207-0.161,7.684   c-0.485,0.905-1.131,1.684-1.875,2.342c-0.232,0.205-0.474,0.395-0.726,0.573l0.219,0.396c1.063,1.936,0.359,4.368-1.576,5.435   c-0.612,0.337-1.273,0.497-1.926,0.496c-1.411,0-2.779-0.748-3.509-2.07l-2.012-3.652c-0.034-0.018-0.072-0.03-0.106-0.049   c-3.78-2.03-7.229-4.083-10.364-6.168c-3.098-2.061-5.888-4.153-8.386-6.29l-6.893,53.813H22.42v47.75c0,5.523,4.477,10,10,10   c5.521,0,10-4.477,10-10v-47.75h3.334v47.75c0,5.523,4.477,10,10,10c5.52,0,10-4.477,10-10v-47.75h15.278l-11.61-90.648   c0.229,0.238,0.448,0.477,0.685,0.716c5.397,5.489,13.037,11.085,22.902,14.271v-6.473C93.009,86.078,94.466,83.847,96.631,82.624z    M44.658,87.851c-6.075,0-11-4.926-11-11c0-6.076,4.925-11,11-11c6.075,0,11,4.924,11,11   C55.658,82.926,50.734,87.851,44.658,87.851z"></path><path d="M155.509,88.632c0-2.762-2.418-5-5.402-5h-4.283c-0.673-1.234-1.997-2.365-3.813-3.337   c-4.801-4.353-9.953-9.735-9.953-15.639c0-3.628,2.306-10.84,4.098-15.899c1.096-1.559,1.796-3.363,1.971-5.308   c0.064-0.163,0.102-0.26,0.102-0.26h-0.088c0.016-0.231,0.039-0.462,0.039-0.698c0-6.458-5.785-11.692-12.921-11.692   c-7.136,0-12.922,5.234-12.922,11.692c0,0.236,0.024,0.467,0.039,0.698h-0.086c0,0,0.038,0.096,0.1,0.257   c0.175,1.946,0.874,3.754,1.973,5.313c1.792,5.061,4.097,12.27,4.097,15.896c0,5.903-5.152,11.286-9.953,15.639   c-1.814,0.972-3.139,2.103-3.812,3.337h-4.284c-0.062,0-0.119,0.015-0.181,0.017c-2.897,0.091-5.221,2.279-5.221,4.983v7.08v2.42   c0,2.762,2.418,5,5.401,5h0.828c-1.852,4.141-5.375,13.555-5.375,25.282c0,15.905,3.334,27.039,2.188,36.582   c-1.146,9.543-2.188,34.282-2.188,50.636s6.081,14.309,11.15,14.309c5.067,0,18.245,0,18.245,0s13.176,0,18.244,0   c5.068,0,11.151,2.045,11.151-14.309s-1.042-41.093-2.189-50.636c-1.145-9.543,2.189-20.677,2.189-36.582   c0-11.728-3.523-21.142-5.375-25.282h0.827c2.984,0,5.402-2.238,5.402-5V88.632z M150.655,215.632c0,6.536-1.034,8.869-1.65,9.68   c-0.265,0.349-0.54,0.71-2.393,0.71c-0.471,0-0.946-0.018-1.416-0.039c-0.569-0.021-1.136-0.042-1.692-0.042h-18.244h-18.244   c-0.557,0-1.123,0.021-1.691,0.042c-0.474,0.02-0.946,0.039-1.417,0.039c-1.853,0-2.128-0.361-2.393-0.71   c-0.616-0.811-1.65-3.144-1.65-9.68c0-16.539,1.05-40.916,2.159-50.157c0.656-5.473,0.001-11.147-0.764-17.716   c-0.001-0.008-0.007-0.016-0.007-0.023c0-2.002,9.287-3.625,22.555-3.625c13.266,0,25.451,1.622,25.455,3.624c0,0,0,0,0,0.001   c0,0.001,0,0.001,0,0.002c-0.767,6.578-1.424,12.259-0.767,17.737C149.605,174.716,150.655,199.093,150.655,215.632z"></path><path d="M147.016,149.736h-2.189c-4.723,0.979-12.654,1.624-21.02,1.624c-8.363,0-15.139-0.646-19.01-1.624H103.5   c0.656,5.762,1.118,10.882,0.509,15.977c-1.104,9.175-2.144,33.434-2.144,49.919c0,5.738,0.83,7.757,1.165,8.341   c0.155,0.023,0.431,0.047,0.877,0.047c0.441,0,0.886-0.016,1.353-0.036c0.589-0.023,1.178-0.044,1.754-0.044h18.245h18.243   c0.576,0,1.162,0.021,1.783,0.044c0.44,0.021,0.885,0.036,1.326,0.036c0.454,0,0.729-0.026,0.885-0.047   c0.296-0.514,1.157-2.507,1.157-8.341c0-16.465-1.041-40.724-2.143-49.919C145.9,160.626,146.36,155.501,147.016,149.736z"></path><ellipse transform="matrix(0.2268 -0.9739 0.9739 0.2268 12.1755 60.3362)" cx="44.088" cy="22.5" rx="22.495" ry="22.495"></ellipse></g></svg>