<svg xmlns="http://www.w3.org/2000/svg" xmlns:xlink="http://www.w3.org/1999/xlink" version="1.1" x="0px" y="0px" viewBox="0 0 159.876 246.02" style="enable-background:new 0 0 159.876 246.02;" xml:space="preserve"><g><path d="M78.667,152.362c-0.566-3.484-0.221-7.006,1.035-10.342c0.095-0.251,0.188-0.503,0.293-0.752   c0.809-1.92-0.189-3.665-0.232-3.737l-0.508-0.864l0.379-0.944l0.296-0.702l0.394-0.934l0.69-1.636l0.388-0.922l0.993-0.248   c0.082-0.02,2.028-0.526,2.839-2.446c0.223-0.529,0.47-1.042,0.732-1.543c0.043-0.082,0.093-0.159,0.137-0.24v-1.334   c0-0.593-0.057-1.171-0.137-1.742V89.004c1.963,1.374,4.127,3.097,6.302,5.224c3.546,3.491,7.157,7.968,10.104,13.822   c1.214,2.412,2.306,5.072,3.242,7.979c0.213,0.661,0.425,1.326,0.62,2.015c0.648,2.285,1.187,4.736,1.612,7.338   c0.114,0.697,0.223,1.403,0.319,2.125c0.109,0.818,0.218,1.637,0.303,2.486c0.403,4.132,3.884,7.224,7.953,7.224   c0.26,0,0.522-0.013,0.787-0.038c0.988-0.097,1.912-0.377,2.754-0.792c0.616-0.304,1.187-0.681,1.697-1.124   c1.894-1.641,2.995-4.139,2.734-6.823c-0.072-0.758-0.176-1.484-0.266-2.226c-0.135-1.106-0.285-2.197-0.458-3.267   c-0.876-5.438-2.222-10.396-3.903-14.897c-4.347-11.634-10.896-20.237-17.23-26.137c-9.594-8.992-18.502-12.185-19.185-12.439   c-0.804-0.284-1.622-0.428-2.431-0.451c-0.837-0.31-1.738-0.488-2.683-0.488H39.602c-0.646,0-1.269,0.087-1.867,0.236   c-0.869,0.022-1.749,0.18-2.608,0.503c-0.838,0.323-9.546,3.725-18.223,13.797C8.208,93.111-0.054,109.912,0,135.183   c0,4.299,0.232,8.849,0.73,13.66c0.426,4.114,3.899,7.177,7.948,7.178c0.276,0,0.554-0.015,0.834-0.044   c4.394-0.456,7.587-4.388,7.132-8.782C16.2,142.904,16,138.907,16,135.183c0.054-21.891,6.764-34.301,13.038-41.681   c0.957-1.114,1.907-2.096,2.835-2.983v35.198v9.303H29.58c-0.476-2.284-2.499-4-4.924-4h-1.258c-2.779,0-5.032,2.253-5.032,5.032   v28.936c0,2.779,2.253,5.032,5.032,5.032h1.258c2.779,0,5.032-2.253,5.032-5.032V142.02h2.185v2.637v89   c0,6.828,5.537,12.363,12.365,12.363c6.826,0,12.363-5.535,12.363-12.363v-81.273h4.771v81.273c0,6.828,5.537,12.363,12.365,12.363   c6.826,0,12.363-5.535,12.363-12.363v-67.828c-2.1-1.969-3.882-4.277-5.196-6.808C79.781,156.859,79.034,154.619,78.667,152.362z"></path><path d="M58.915,37.87c-9.259,0-17.408-4.408-19.479-8.635c-0.178-0.031-0.365-0.069-0.557-0.109   c-2.327,4.561-3.121,9.934-1.869,15.311c2.817,12.1,14.91,19.625,27.01,16.808c12.101-2.817,19.626-14.911,16.809-27.011   c-0.423-1.813-1.058-3.522-1.865-5.11c-0.195,0.041-0.388,0.08-0.568,0.111C76.325,33.464,68.177,37.87,58.915,37.87z"></path><path d="M139.754,172.968l-2.367,4.796l-1.404,2.845c-0.458,0.929-0.354,1.98,0.168,2.791l-0.256,1.511l-1.225-0.207l-3.154,1.626   c0,0-6.71-0.772-8.292,2.202c-1.581,2.973-2.933,6.705-4.979,8.16c-2.044,1.455-9.47,7.043-11.241,17.545   c-1.774,10.501,4.035,23.005,15.938,25.013c3.15,0.532,4.487,3.277,4.487,3.277l1.752,0.296l1.749,0.297   c0,0,2.163-2.155,5.315-1.624c11.902,2.01,21.494-7.893,23.267-18.394c1.773-10.504-3.405-18.218-4.858-20.264   c-1.456-2.046-1.505-6.016-2.024-9.342c-0.52-3.328-7.11-4.802-7.11-4.802l-2.444-2.573l-1.227-0.207l0.532-3.15   c0.041-0.243,0.039-0.482,0.02-0.717l1.196-2.425l1.167-2.363c1.095-0.391,1.884-1.425,1.89-2.653l0.038-8.521   c0.005-1.001-0.512-1.879-1.292-2.389l-1.965-3.716l-1.604-3.033c-0.585-1.104-1.791-1.651-2.959-1.464l-1.877-0.792l0.482-1.146   l-0.862-3.444c0,0,2.294-6.354-0.236-8.577c-2.531-2.222-5.854-4.393-6.8-6.718c-0.417-1.024-1.376-3.246-3.155-5.767   c0.059,3.322-1.537,6.348-4.076,8.222c1.372,5.956-1.9,13.73-1.9,13.73s-4.826,11.45-12.094,12.24   c-7.267,0.79-27.655-2.023-18.005-24.924c4.36-10.349,10.068-13.43,15.434-13.182c-0.418-2.432-0.947-4.776-1.605-7.023   c-7.14,0.515-14.021,4.202-17.099,11.506c-0.262,0.62-0.603,1.135-0.974,1.568c-0.046,0.053-0.091,0.106-0.137,0.156   c-1.374,1.496-3.109,1.892-3.109,1.892l-0.689,1.636L82.1,135.02l-0.623,1.479c0,0,1.592,2.586,0.369,5.521   c-0.004,0.008-0.006,0.017-0.009,0.024c-1.41,3.347-1.717,6.735-1.198,9.953c0.66,4.09,2.659,7.9,5.463,10.987   c2.321,2.556,5.189,4.617,8.299,5.927c9.815,4.136,18.512,0.867,20.837-0.08c2.325-0.946,6.199-0.085,9.559,0.176   c3.356,0.259,6.303-5.819,6.303-5.819l3.067-1.79l0.482-1.146l2.187,0.923l1.315,2.488l2.012,3.804   c0.037,0.07,0.087,0.129,0.13,0.195l-0.022,4.596C140.07,172.465,139.888,172.696,139.754,172.968z M150.782,210.826   c2.438,6.894,4.379,27.382-20.125,23.244c-24.506-4.135-15.945-22.853-11.379-28.563c4.562-5.709,16.815-3.642,16.815-3.642   S148.347,203.934,150.782,210.826z M140.05,179.49l-0.35-0.058c-0.409-0.068-0.81-0.042-1.187,0.057l1.027-2.081l0.904-1.83   c0.359,0.963,1.222,1.671,2.271,1.814l-0.443,0.898l-0.897,1.818C141.005,179.802,140.559,179.577,140.05,179.49z M143.892,175.012   l-0.318,0.646l-0.479-0.003c-0.586-0.003-1.063-0.482-1.06-1.071l0.006-1.377c0.237-0.061,0.494-0.053,0.73,0.063l0.637,0.314   C143.935,173.845,144.153,174.484,143.892,175.012z M144.242,165.31c0.275,0.52,0.075,1.165-0.444,1.44l-0.626,0.33   c-0.364,0.193-0.785,0.142-1.103-0.078l0.005-0.936c0.003-0.589,0.481-1.065,1.068-1.062l0.711,0.003   c0.091,0.001,0.172,0.031,0.257,0.054L144.242,165.31z M140.079,163.514l-0.971-1.837c0.948-0.141,1.804-0.749,2.204-1.697   l0.049-0.117l1.091,2.062l0.691,1.308c-1.056-0.002-1.967,0.577-2.457,1.43L140.079,163.514z M142.061,168.901   c0.636,0.141,1.319,0.077,1.94-0.251l0.626-0.332c0.101-0.053,0.187-0.122,0.277-0.184l-0.02,4.358   c-0.202-0.192-0.427-0.367-0.69-0.498l-0.637-0.316c-0.486-0.239-1.006-0.317-1.508-0.271L142.061,168.901z"></path><path d="M74.444,7.174C67.164,7.174,58.918,0,58.918,0s-8.243,7.174-15.526,7.174c-3.21,6.852-6.959,10.279-11.135,10.279   c0,0,3.749,4.711,3.749,7.494c0,1.273,1.77,1.963,3.923,2.337c0.332,0.058,0.671,0.109,1.016,0.153   c0.374,3.324,8.278,8.432,17.974,8.432c9.697,0,17.602-5.107,17.973-8.432c0.347-0.044,0.688-0.096,1.022-0.154   c2.151-0.375,3.919-1.065,3.919-2.336c0-2.783,3.749-7.494,3.749-7.494C81.404,17.453,77.656,14.026,74.444,7.174z M58.92,28.019   c-1.881,0-9.399-8.771-5.014-8.144c0.989-1.485,1.977-2.378,2.813-2.921c1.28-0.833,2.201-0.838,2.201-0.838   s0.916,0.006,2.192,0.834c0.837,0.543,1.826,1.437,2.819,2.926C68.317,19.248,60.799,28.019,58.92,28.019z"></path></g></svg>