<svg xmlns="http://www.w3.org/2000/svg" xmlns:xlink="http://www.w3.org/1999/xlink" version="1.1" x="0px" y="0px" viewBox="0 0 206.196 231.692" style="enable-background:new 0 0 206.196 231.692;" xml:space="preserve"><g><ellipse transform="matrix(0.2268 -0.9739 0.9739 0.2268 15.3306 64.3104)" cx="48.168" cy="22.5" rx="22.495" ry="22.495"></ellipse><path d="M56.692,162.163v-16.405c0.002-5.01,1.096-9.767,3.041-14.061c4.167-9.198,12.278-16.241,22.165-18.955l-6.625-34.099   c0.328,0.332,0.649,0.662,0.99,0.998c8.198,8.074,20.156,17.162,35.951,22.361v-0.486v-2h2.001h11.37   c0.065-0.187,0.144-0.364,0.193-0.56c0.407-1.615,0.165-3.239-0.553-4.606H119.8c-3.157,0-5.747-2.45-5.978-5.55   c-12.168-4.502-21.686-11.769-28.435-18.42c-4.013-3.953-7.027-7.661-9.011-10.34c-0.992-1.34-1.726-2.424-2.199-3.149   c-0.237-0.362-0.41-0.636-0.514-0.809c-0.053-0.087-0.09-0.147-0.111-0.182c-0.011-0.019-0.011-0.019-0.011-0.019   c-0.92-1.577-2.401-2.62-4.042-3.03c-2.299-0.937-9.385-3.357-21.332-3.357c-11.868,0-18.934,2.386-21.28,3.337   c-0.548,0.136-1.088,0.338-1.605,0.626h-0.003c-0.26,0.153-6.085,3.377-12.189,8.93c-3.05,2.788-6.19,6.163-8.697,10.22   c-2.488,4.038-4.389,8.879-4.392,14.334c-0.041,5.882,2.385,12.086,7.291,17.503c1.078,1.2,2.277,2.376,3.589,3.532   c1.191,1.051,2.481,2.084,3.878,3.101c4.064,2.96,9.015,5.794,15.014,8.552c0.877,0.402,1.798,0.593,2.703,0.593   c2.464,0,4.82-1.407,5.914-3.792c1.498-3.265,0.065-7.121-3.2-8.616c-8.703-3.982-14.304-7.937-17.589-11.365   c-0.217-0.226-0.425-0.451-0.622-0.673c-0.675-0.769-1.235-1.493-1.708-2.185c-1.758-2.571-2.241-4.664-2.273-6.65   c-0.005-2.345,0.839-4.876,2.461-7.513c1.736-2.848,4.359-5.636,6.999-7.976l-4.376,22.524c0.133,0.16,0.255,0.314,0.4,0.479   c2.399,2.698,7.395,6.896,17.541,11.54c2.064,0.944,3.637,2.636,4.428,4.766c0.79,2.128,0.706,4.437-0.241,6.501   c-1.38,3.013-4.417,4.961-7.732,4.961c-1.221,0-2.411-0.26-3.534-0.773c-5.695-2.616-10.533-5.34-14.603-8.216l-9.506,48.928   h21.667v59.529c0,5.523,4.477,10,10,10c5.521,0,10-4.477,10-10v-59.529h3.333v59.529c0,4.425,2.876,8.171,6.858,9.489v-0.906   V162.163z"></path><path d="M182.716,114.735v-13.218h-22.558c-1.167-1.981-2.811-5.204-3.957-9.166h20.932c2.209,0,4-1.791,4-4v-35   c0-2.209-1.791-4-4-4h-57.334c-2.209,0-4,1.791-4,4v35c0,0.429,0.085,0.835,0.21,1.223c0.519,1.607,2.01,2.777,3.79,2.777h3.803   h17.128c-1.146,3.962-2.79,7.185-3.957,9.166h-12.321h-10.236v1.129v10.871H90.937c-3.001,0.001-5.902,0.42-8.657,1.186   c-9.041,2.516-16.481,8.86-20.455,17.188c-2.004,4.2-3.129,8.901-3.132,13.867v16.404v68.112h6.252h17.749V213.02h99.498v17.256   h24.004v-84.517C206.188,130.987,196.262,118.556,182.716,114.735z"></path></g></svg>