<svg xmlns="http://www.w3.org/2000/svg" xmlns:xlink="http://www.w3.org/1999/xlink" version="1.1" x="0px" y="0px" viewBox="0 0 189.278 229.183" style="enable-background:new 0 0 189.278 229.183;" xml:space="preserve"><g><ellipse transform="matrix(0.9739 -0.2268 0.2268 0.9739 -3.792 11.9944)" cx="50.303" cy="22.5" rx="22.495" ry="22.495"></ellipse><path d="M5.73,101.624c2.251,2.683,5.116,5.123,8.548,7.349c2.62,1.696,5.604,3.29,8.979,4.803   c2.234,1.001,4.651,1.965,7.256,2.895c1.766,0.631,3.602,1.251,5.551,1.854c0.785,0.242,1.58,0.357,2.361,0.357   c0.552,0,1.091-0.077,1.622-0.188c2.756-0.576,5.131-2.574,6.021-5.456c1.303-4.22-1.063-8.699-5.285-10.002   c-3.085-0.945-5.817-1.919-8.244-2.896c-0.069-0.028-0.139-0.056-0.208-0.084c-1.311-0.533-2.536-1.066-3.663-1.598   c-2.114-0.996-3.907-1.982-5.41-2.937c-1.391-0.883-2.54-1.738-3.448-2.544c-1.718-1.507-2.638-2.791-3.146-3.811   c-0.065-0.133-0.108-0.253-0.162-0.378c-0.362-0.846-0.494-1.551-0.5-2.328c-0.019-1.485,0.611-3.536,2.098-5.877   c1.277-2.056,3.154-4.183,5.159-6.123v18.663c1.687,1.169,4.137,2.598,7.612,4.141c0.61,0.271,1.249,0.545,1.924,0.821l0.184-1.48   l1.824-14.706l6.525,0.809l3.98-7.675l25.147,13.041l-4.3,8.292l-6.048,11.664l-2.238,18.045l-5.109-0.634l-4.771-0.592   l-18.231-2.261l0.507-4.087c-2.486-0.878-4.827-1.787-7.004-2.736v11.853v89c0,6.828,5.537,12.363,12.365,12.363   c6.826,0,12.363-5.535,12.363-12.363v-81.273h4.771v81.273c0,6.828,5.537,12.363,12.365,12.363c6.826,0,12.363-5.535,12.363-12.363   V108.88c0-0.593-0.056-1.171-0.137-1.742V80.964c0.878,0.835,1.783,1.679,2.746,2.537c8.466,7.544,20.291,15.815,35.493,21.371   v-17.24c-10.313-4.56-18.6-10.513-24.848-16.079c-4.748-4.225-8.296-8.206-10.62-11.077c-1.161-1.435-2.018-2.593-2.564-3.365   c-0.273-0.385-0.47-0.673-0.59-0.853c-0.059-0.088-0.1-0.151-0.121-0.182l-0.006-0.008c-0.334-0.528-0.723-0.998-1.149-1.418   c-1.415-1.795-3.604-2.952-6.069-2.952H30.986c-0.64,0-1.258,0.086-1.852,0.232c-1.322,0.031-2.654,0.386-3.873,1.105h-0.003   c-0.285,0.179-5.986,3.525-12.017,9.069c-3.015,2.789-6.131,6.126-8.674,10.142C2.053,76.244,0.017,81.07,0,86.662   c-0.009,3.242,0.75,6.661,2.339,9.836C3.238,98.299,4.373,100.006,5.73,101.624z"></path><path d="M171.441,176.471c-8.556,0.729-20.332,1.176-33.34,1.178c-18.302-0.004-34.126-0.882-42.063-2.198   c-1.747-0.316-3.06-0.57-4.08-0.945c0.669,25.295,20.658,44.879,46.144,44.89c25.485-0.01,45.477-19.598,46.142-44.897   c-0.7,0.251-1.548,0.471-2.591,0.682C179.192,175.674,175.723,176.106,171.441,176.471z"></path><path d="M117.586,88.493v17.094v20.094c-18.084,8.191-30.663,26.394-30.663,47.54c0,28.809,22.371,51.178,51.178,51.178   s51.178-22.369,51.178-51.178c0-21.146-12.581-39.349-30.664-47.54V62.044c1.131-0.279,2.117-0.581,2.924-0.903   c1.642-0.656,2.563-1.391,2.563-2.167c0-0.326-0.168-0.645-0.478-0.953c-0.366-0.365-0.939-0.716-1.694-1.048   c-4.014-1.765-13.169-2.999-23.828-2.999c-10.659,0-19.814,1.234-23.828,2.999c-0.757,0.333-1.331,0.685-1.697,1.051   c-0.308,0.308-0.475,0.625-0.475,0.95c0,0.776,0.92,1.511,2.562,2.167c0.806,0.322,1.792,0.624,2.923,0.903V88.493z    M180.163,169.342c2.69,0.489,4.358,0.823,5.497,1.689c0.302,0.246,0.684,0.695,0.689,1.366c-0.002,0.222-0.054,0.411-0.121,0.584   c0.02,0.078,0.048,0.153,0.048,0.237c0.002,13.491-5.29,25.547-13.96,34.216c-8.669,8.671-20.726,13.96-34.214,13.96   c-13.491,0-25.547-5.29-34.216-13.96c-8.673-8.669-13.962-20.725-13.961-34.216c0-0.084,0.028-0.159,0.048-0.236   c-0.068-0.174-0.121-0.363-0.123-0.585c0.008-0.671,0.39-1.12,0.689-1.366c0.32-0.265,0.653-0.433,1.037-0.593   c0.761-0.316,1.738-0.572,2.973-0.823c2.46-0.494,5.93-0.927,10.212-1.292c8.556-0.727,20.331-1.176,33.34-1.176   C156.403,167.151,172.227,168.027,180.163,169.342z"></path><circle cx="134.69" cy="37.473" r="9.5"></circle><circle cx="147.19" cy="21.973" r="6"></circle><circle cx="138.19" cy="9.973" r="6"></circle></g></svg>