<svg xmlns="http://www.w3.org/2000/svg" xmlns:xlink="http://www.w3.org/1999/xlink" version="1.1" x="0px" y="0px" viewBox="0 0 183.522 238.35" style="enable-background:new 0 0 183.522 238.35;" xml:space="preserve"><g><path d="M117.955,103.65c-4.784-2.048-5.565-4.559-5.307-6.401c-7.699-4.385-14.233-9.9-19.374-15.188   c-4.335-4.444-7.666-8.679-9.879-11.752c-1.105-1.538-1.933-2.786-2.47-3.624c-0.267-0.418-0.463-0.737-0.584-0.936   c-0.061-0.101-0.104-0.172-0.127-0.211C80.2,65.513,80.2,65.513,80.2,65.513c-0.367-0.637-0.814-1.196-1.313-1.689   c-1.415-1.798-3.605-2.957-6.072-2.957H34.181c-0.645,0-1.268,0.088-1.867,0.236c-0.706,0.019-1.422,0.124-2.131,0.341   c-1.04,0.311-8.719,2.911-16.118,11.969C6.639,82.452-0.041,97.703,0,121.65c0,7.638,0.66,16.183,2.164,25.759   c0.618,3.943,4.021,6.76,7.894,6.76c0.412,0,0.829-0.031,1.249-0.098c4.364-0.686,7.349-4.779,6.665-9.143   c-1.39-8.844-1.974-16.563-1.971-23.278c0.04-21.109,5.617-32.138,10.451-38.112v34.51v18.939v89   c0,6.828,5.537,12.363,12.365,12.363c6.826,0,12.363-5.535,12.363-12.363v-81.273h4.771v81.273c0,6.828,5.537,12.363,12.365,12.363   c6.826,0,12.363-5.535,12.363-12.363V118.048c0-0.593-0.056-1.171-0.137-1.742V91.894c0.419,0.443,0.835,0.887,1.272,1.336   c10.009,10.248,24.906,21.898,44.665,26.587c0.617,0.146,1.234,0.215,1.842,0.215c0.979,0,1.93-0.186,2.818-0.521   C130.361,115.465,127.617,107.787,117.955,103.65z"></path><path d="M40.441,27.548c-4.144-0.393-6.798-0.833-8.476-1.378c-1.105,3.646-1.302,7.621-0.376,11.599   c2.817,12.1,14.91,19.625,27.01,16.808c11.883-2.767,19.347-14.479,16.943-26.358c-3.85,0.151-8.008,0.231-12.292,0.231   C54.647,28.448,46.546,28.129,40.441,27.548z"></path><path d="M164.654,138.696c-7.503-6.17-15.525-10.843-17.056-12.052c-5.91-4.668,6.559-9.811,14.297-17.906   c7.741-8.095-10.091-13.111-13.309-10.133c-2.818,2.609-9.152,4.293-12.767-1.828c-3.25-5.505-24.473-2.212-19.405,2.487   c0.565,0.524,1.442,1.065,2.724,1.614c10.034,4.299,13.501,12.076,14.698,16.938c0.633,2.567,0.634,4.322,0.634,4.322   c-10.851,7.85-19.48,5.656-26.116,13.059c-1.042,1.162-2.032,2.329-2.98,3.499c-3.145,3.881-5.783,7.799-7.971,11.714   c-16.73,29.946-7.013,59.729,5.426,71.175c0.683,0.629,1.355,1.232,2.021,1.824c16.603,14.73,28.938,17.976,66.536,3.449   c1.183-0.457,2.265-1.155,3.258-2.051c10.291-9.286,10.595-40.531,6.167-60.45c-1.128-5.072-2.562-9.41-4.216-12.462   C174.063,147.223,169.465,142.652,164.654,138.696z M159.452,106.292c-3.452,6.438-10.933,10.118-11.037,7.874   c-0.133-2.851,9.873-5.863,7.842-8.345c-2.25-2.749-5.625-2.999-8.438-3.749C147.819,102.072,163.257,99.197,159.452,106.292z    M134.319,99.531c0,0-8.958-1.625-14.5-1.209C123.361,92.489,134.319,99.531,134.319,99.531z M103.333,208.527   c-15.063-13.422-6.554-36.384-6.554-36.384c-2.326,13.825,0.288,20.747,5.96,30.569c1.625,2.813,3.498,5.863,5.58,9.383   C106.418,211.015,104.775,209.811,103.333,208.527z M102.979,153.74c1.229-6.719,4.315-11.552,8.146-15.044   c10.217-9.314,25.766-9.024,25.766-9.024c-9.71,1.66-15.397,4.503-20.488,9.024C112.173,142.453,108.352,147.368,102.979,153.74z"></path><path d="M95.236,23.411c0-1.215-7.507-2.264-18.352-2.75C75.689,9.054,65.88,0,53.956,0C41.225,0,30.903,10.321,30.903,23.053   c0.192,0,0.392,0,0.586,0c-0.144,0.117-0.227,0.236-0.227,0.358c0,0.306,0.48,0.601,1.364,0.878   c3.969,1.249,16.175,2.159,30.623,2.159c4.17,0,8.148-0.076,11.801-0.215C86.873,25.788,95.236,24.692,95.236,23.411z"></path></g></svg>